<svg width="21" height="20" viewBox="0 0 21 20" fill="none" xmlns="http://www.w3.org/2000/svg">
<path fill-rule="evenodd" clip-rule="evenodd" d="M10.3333 3.125C6.53637 3.125 3.45833 6.20304 3.45833 10C3.45833 13.797 6.53637 16.875 10.3333 16.875C14.1303 16.875 17.2083 13.797 17.2083 10V8.75046C17.2083 8.40528 17.4882 8.125 17.8333 8.125C18.1785 8.125 18.4583 8.40482 18.4583 8.75V10C18.4583 14.4873 14.8206 18.125 10.3333 18.125C5.84601 18.125 2.20833 14.4873 2.20833 10C2.20833 5.51269 5.84601 1.875 10.3333 1.875L11.5827 1.875L11.5833 3.125L10.3333 3.125ZM12.2083 2.5C12.2083 2.84518 11.9285 3.125 11.5833 3.125L11.5827 1.875C11.9279 1.875 12.2083 2.15482 12.2083 2.5Z" fill="#1E4841"/>
<path fill-rule="evenodd" clip-rule="evenodd" d="M14.7083 3.125C14.3632 3.125 14.0833 2.84518 14.0833 2.5C14.0833 2.15482 14.3632 1.875 14.7083 1.875H17.8333C18.1785 1.875 18.4583 2.15482 18.4583 2.5V5.625C18.4583 5.97018 18.1785 6.25 17.8333 6.25C17.4882 6.25 17.2083 5.97018 17.2083 5.625V4.00888L15.1503 6.06694C14.9062 6.31102 14.5105 6.31102 14.2664 6.06694C14.0223 5.82286 14.0223 5.42714 14.2664 5.18306L16.3244 3.125H14.7083Z" fill="#1E4841"/>
<path d="M10.3333 5C10.6785 5 10.9583 5.27982 10.9583 5.625V6.25H12.2083C12.5535 6.25 12.8333 6.52982 12.8333 6.875C12.8333 7.22018 12.5535 7.5 12.2083 7.5H9.39583C9.14719 7.5 8.90873 7.59877 8.73292 7.77459C8.5571 7.9504 8.45833 8.18886 8.45833 8.4375C8.45833 8.68614 8.5571 8.9246 8.73292 9.10041C8.90873 9.27623 9.14719 9.375 9.39583 9.375H11.2708C11.851 9.375 12.4074 9.60547 12.8176 10.0157C13.2279 10.4259 13.4583 10.9823 13.4583 11.5625C13.4583 12.1427 13.2279 12.6991 12.8176 13.1093C12.4074 13.5195 11.851 13.75 11.2708 13.75H10.9583V14.375C10.9583 14.7202 10.6785 15 10.3333 15C9.98815 15 9.70833 14.7202 9.70833 14.375V13.75H8.45833C8.11315 13.75 7.83333 13.4702 7.83333 13.125C7.83333 12.7798 8.11315 12.5 8.45833 12.5H11.2708C11.5195 12.5 11.7579 12.4012 11.9337 12.2254C12.1096 12.0496 12.2083 11.8111 12.2083 11.5625C12.2083 11.3139 12.1096 11.0754 11.9337 10.8996C11.7579 10.7238 11.5195 10.625 11.2708 10.625H9.39583C8.81567 10.625 8.25927 10.3945 7.84903 9.9843C7.4388 9.57406 7.20833 9.01766 7.20833 8.4375C7.20833 7.85734 7.4388 7.30094 7.84903 6.8907C8.25927 6.48047 8.81567 6.25 9.39583 6.25H9.70833V5.625C9.70833 5.27982 9.98815 5 10.3333 5Z" fill="#1E4841"/>
</svg>
