<svg viewBox="0 0 19 18" xmlns="http://www.w3.org/2000/svg">
<path d="M9.33333 9.84375C9.79932 9.84375 10.1771 9.46599 10.1771 9C10.1771 8.53401 9.79932 8.15625 9.33333 8.15625C8.86734 8.15625 8.48958 8.53401 8.48958 9C8.48958 9.46599 8.86734 9.84375 9.33333 9.84375Z"/>
<path d="M9.33333 5.34375C9.79932 5.34375 10.1771 4.96599 10.1771 4.5C10.1771 4.03401 9.79932 3.65625 9.33333 3.65625C8.86734 3.65625 8.48958 4.03401 8.48958 4.5C8.48958 4.96599 8.86734 5.34375 9.33333 5.34375Z"/>
<path d="M9.33333 14.3438C9.79932 14.3438 10.1771 13.966 10.1771 13.5C10.1771 13.034 9.79932 12.6562 9.33333 12.6562C8.86734 12.6562 8.48958 13.034 8.48958 13.5C8.48958 13.966 8.86734 14.3438 9.33333 14.3438Z"/>
</svg>
