<svg width="18" height="18" viewBox="0 0 18 18" fill="none" xmlns="http://www.w3.org/2000/svg">
<path d="M14.625 6.75H7.03125V4.78125C7.03125 4.2591 7.23867 3.75835 7.60788 3.38913C7.9771 3.01992 8.47786 2.8125 9 2.8125C9.52214 2.8125 10.0229 3.01992 10.3921 3.38913C10.7613 3.75835 10.9688 4.2591 10.9688 4.78125C10.9688 4.93043 11.028 5.07351 11.1335 5.179C11.239 5.28449 11.3821 5.34375 11.5312 5.34375C11.6804 5.34375 11.8235 5.28449 11.929 5.179C12.0345 5.07351 12.0938 4.93043 12.0938 4.78125C12.0938 3.96074 11.7678 3.17383 11.1876 2.59364C10.6074 2.01345 9.82051 1.6875 9 1.6875C8.17949 1.6875 7.39258 2.01345 6.81239 2.59364C6.2322 3.17383 5.90625 3.96074 5.90625 4.78125V6.75H3.375C3.07663 6.75 2.79048 6.86853 2.5795 7.0795C2.36853 7.29048 2.25 7.57663 2.25 7.875V15.75C2.25 16.0484 2.36853 16.3345 2.5795 16.5455C2.79048 16.7565 3.07663 16.875 3.375 16.875H14.625C14.9234 16.875 15.2095 16.7565 15.4205 16.5455C15.6315 16.3345 15.75 16.0484 15.75 15.75V7.875C15.75 7.57663 15.6315 7.29048 15.4205 7.0795C15.2095 6.86853 14.9234 6.75 14.625 6.75ZM9 12.6562C8.83312 12.6562 8.66999 12.6068 8.53124 12.5141C8.39248 12.4213 8.28434 12.2896 8.22048 12.1354C8.15662 11.9812 8.13991 11.8116 8.17246 11.6479C8.20502 11.4842 8.28538 11.3339 8.40338 11.2159C8.52138 11.0979 8.67172 11.0175 8.83539 10.985C8.99906 10.9524 9.16871 10.9691 9.32289 11.033C9.47706 11.0968 9.60884 11.205 9.70155 11.3437C9.79426 11.4825 9.84375 11.6456 9.84375 11.8125C9.84375 12.0363 9.75485 12.2509 9.59662 12.4091C9.43839 12.5674 9.22378 12.6562 9 12.6562Z" fill="#1E4841"/>
</svg>
