<svg width="21" height="20" viewBox="0 0 21 20" fill="none" xmlns="http://www.w3.org/2000/svg">
<path fill-rule="evenodd" clip-rule="evenodd" d="M5.04169 4.375C4.87593 4.375 4.71696 4.44085 4.59975 4.55806C4.48253 4.67527 4.41669 4.83424 4.41669 5C4.41669 5.16576 4.48253 5.32473 4.59975 5.44194C4.71696 5.55915 4.87593 5.625 5.04169 5.625H17.5417C17.8732 5.625 18.1911 5.7567 18.4256 5.99112C18.66 6.22554 18.7917 6.54348 18.7917 6.875V15.625C18.7917 15.9565 18.66 16.2745 18.4256 16.5089C18.1911 16.7433 17.8732 16.875 17.5417 16.875H5.04169C4.54441 16.875 4.06749 16.6775 3.71586 16.3258C3.36423 15.9742 3.16669 15.4973 3.16669 15V5C3.16669 4.50272 3.36423 4.02581 3.71586 3.67417C4.06749 3.32254 4.54441 3.125 5.04169 3.125H15.6667C16.0119 3.125 16.2917 3.40482 16.2917 3.75C16.2917 4.09518 16.0119 4.375 15.6667 4.375H5.04169ZM4.41669 6.76777V15C4.41669 15.1658 4.48253 15.3247 4.59975 15.4419C4.71696 15.5592 4.87593 15.625 5.04169 15.625H17.5417V6.875H5.04169C4.82672 6.875 4.61556 6.83809 4.41669 6.76777Z" fill="#1E4841"/>
<path d="M14.7292 12.1875C15.247 12.1875 15.6667 11.7678 15.6667 11.25C15.6667 10.7322 15.247 10.3125 14.7292 10.3125C14.2114 10.3125 13.7917 10.7322 13.7917 11.25C13.7917 11.7678 14.2114 12.1875 14.7292 12.1875Z" fill="#1E4841"/>
</svg>
