<svg width="20" height="20" viewBox="0 0 20 20" fill="none" xmlns="http://www.w3.org/2000/svg">
<path fill-rule="evenodd" clip-rule="evenodd" d="M10 3.125C13.797 3.125 16.875 6.20304 16.875 10C16.875 13.797 13.797 16.875 10 16.875C6.20304 16.875 3.125 13.797 3.125 10V8.75046C3.125 8.40528 2.84518 8.125 2.5 8.125C2.15482 8.125 1.875 8.40482 1.875 8.75V10C1.875 14.4873 5.51269 18.125 10 18.125C14.4873 18.125 18.125 14.4873 18.125 10C18.125 5.51269 14.4873 1.875 10 1.875L8.7506 1.875L8.75001 3.125L10 3.125ZM8.125 2.5C8.125 2.84518 8.40483 3.125 8.75001 3.125L8.7506 1.875C8.40542 1.875 8.125 2.15482 8.125 2.5Z" fill="#1E4841"/>
<path fill-rule="evenodd" clip-rule="evenodd" d="M2.5 5C2.15482 5 1.875 5.27982 1.875 5.625C1.875 5.97018 2.15482 6.25 2.5 6.25H5.625C5.97018 6.25 6.25 5.97018 6.25 5.625V2.5C6.25 2.15482 5.97018 1.875 5.625 1.875C5.27982 1.875 5 2.15482 5 2.5V4.11612L2.94194 2.05806C2.69786 1.81398 2.30214 1.81398 2.05806 2.05806C1.81398 2.30214 1.81398 2.69786 2.05806 2.94194L4.11612 5H2.5Z" fill="#1E4841"/>
<path d="M10 5C10.3452 5 10.625 5.27982 10.625 5.625V6.25H11.875C12.2202 6.25 12.5 6.52982 12.5 6.875C12.5 7.22018 12.2202 7.5 11.875 7.5H9.0625C8.81386 7.5 8.5754 7.59877 8.39959 7.77459C8.22377 7.9504 8.125 8.18886 8.125 8.4375C8.125 8.68614 8.22377 8.9246 8.39959 9.10041C8.5754 9.27623 8.81386 9.375 9.0625 9.375H10.9375C11.5177 9.375 12.0741 9.60547 12.4843 10.0157C12.8945 10.4259 13.125 10.9823 13.125 11.5625C13.125 12.1427 12.8945 12.6991 12.4843 13.1093C12.0741 13.5195 11.5177 13.75 10.9375 13.75H10.625V14.375C10.625 14.7202 10.3452 15 10 15C9.65482 15 9.375 14.7202 9.375 14.375V13.75H8.125C7.77982 13.75 7.5 13.4702 7.5 13.125C7.5 12.7798 7.77982 12.5 8.125 12.5H10.9375C11.1861 12.5 11.4246 12.4012 11.6004 12.2254C11.7762 12.0496 11.875 11.8111 11.875 11.5625C11.875 11.3139 11.7762 11.0754 11.6004 10.8996C11.4246 10.7238 11.1861 10.625 10.9375 10.625H9.0625C8.48234 10.625 7.92594 10.3945 7.5157 9.9843C7.10547 9.57406 6.875 9.01766 6.875 8.4375C6.875 7.85734 7.10547 7.30094 7.5157 6.8907C7.92594 6.48047 8.48234 6.25 9.0625 6.25H9.375V5.625C9.375 5.27982 9.65482 5 10 5Z" fill="#1E4841"/>
</svg>
