<?xml version="1.0" encoding="UTF-8"?>
<svg xmlns="http://www.w3.org/2000/svg" xmlns:xlink="http://www.w3.org/1999/xlink" width="0" height="0">
<symbol id="CoinIn" viewBox="0 0 20 20">
<path fill-rule="evenodd" clip-rule="evenodd" d="M10 3.125C13.797 3.125 16.875 6.20304 16.875 10C16.875 13.797 13.797 16.875 10 16.875C6.20304 16.875 3.125 13.797 3.125 10V8.75046C3.125 8.40528 2.84518 8.125 2.5 8.125C2.15482 8.125 1.875 8.40482 1.875 8.75V10C1.875 14.4873 5.51269 18.125 10 18.125C14.4873 18.125 18.125 14.4873 18.125 10C18.125 5.51269 14.4873 1.875 10 1.875L8.7506 1.875L8.75001 3.125L10 3.125ZM8.125 2.5C8.125 2.84518 8.40483 3.125 8.75001 3.125L8.7506 1.875C8.40542 1.875 8.125 2.15482 8.125 2.5Z"/>
<path fill-rule="evenodd" clip-rule="evenodd" d="M2.5 5C2.15482 5 1.875 5.27982 1.875 5.625C1.875 5.97018 2.15482 6.25 2.5 6.25H5.625C5.97018 6.25 6.25 5.97018 6.25 5.625V2.5C6.25 2.15482 5.97018 1.875 5.625 1.875C5.27982 1.875 5 2.15482 5 2.5V4.11612L2.94194 2.05806C2.69786 1.81398 2.30214 1.81398 2.05806 2.05806C1.81398 2.30214 1.81398 2.69786 2.05806 2.94194L4.11612 5H2.5Z"/>
<path d="M10 5C10.3452 5 10.625 5.27982 10.625 5.625V6.25H11.875C12.2202 6.25 12.5 6.52982 12.5 6.875C12.5 7.22018 12.2202 7.5 11.875 7.5H9.0625C8.81386 7.5 8.5754 7.59877 8.39959 7.77459C8.22377 7.9504 8.125 8.18886 8.125 8.4375C8.125 8.68614 8.22377 8.9246 8.39959 9.10041C8.5754 9.27623 8.81386 9.375 9.0625 9.375H10.9375C11.5177 9.375 12.0741 9.60547 12.4843 10.0157C12.8945 10.4259 13.125 10.9823 13.125 11.5625C13.125 12.1427 12.8945 12.6991 12.4843 13.1093C12.0741 13.5195 11.5177 13.75 10.9375 13.75H10.625V14.375C10.625 14.7202 10.3452 15 10 15C9.65482 15 9.375 14.7202 9.375 14.375V13.75H8.125C7.77982 13.75 7.5 13.4702 7.5 13.125C7.5 12.7798 7.77982 12.5 8.125 12.5H10.9375C11.1861 12.5 11.4246 12.4012 11.6004 12.2254C11.7762 12.0496 11.875 11.8111 11.875 11.5625C11.875 11.3139 11.7762 11.0754 11.6004 10.8996C11.4246 10.7238 11.1861 10.625 10.9375 10.625H9.0625C8.48234 10.625 7.92594 10.3945 7.5157 9.9843C7.10547 9.57406 6.875 9.01766 6.875 8.4375C6.875 7.85734 7.10547 7.30094 7.5157 6.8907C7.92594 6.48047 8.48234 6.25 9.0625 6.25H9.375V5.625C9.375 5.27982 9.65482 5 10 5Z"/>
</symbol>

<symbol id="CoinOut" viewBox="0 0 21 20">
<path fill-rule="evenodd" clip-rule="evenodd" d="M10.3333 3.125C6.53637 3.125 3.45833 6.20304 3.45833 10C3.45833 13.797 6.53637 16.875 10.3333 16.875C14.1303 16.875 17.2083 13.797 17.2083 10V8.75046C17.2083 8.40528 17.4882 8.125 17.8333 8.125C18.1785 8.125 18.4583 8.40482 18.4583 8.75V10C18.4583 14.4873 14.8206 18.125 10.3333 18.125C5.84601 18.125 2.20833 14.4873 2.20833 10C2.20833 5.51269 5.84601 1.875 10.3333 1.875L11.5827 1.875L11.5833 3.125L10.3333 3.125ZM12.2083 2.5C12.2083 2.84518 11.9285 3.125 11.5833 3.125L11.5827 1.875C11.9279 1.875 12.2083 2.15482 12.2083 2.5Z"/>
<path fill-rule="evenodd" clip-rule="evenodd" d="M14.7083 3.125C14.3632 3.125 14.0833 2.84518 14.0833 2.5C14.0833 2.15482 14.3632 1.875 14.7083 1.875H17.8333C18.1785 1.875 18.4583 2.15482 18.4583 2.5V5.625C18.4583 5.97018 18.1785 6.25 17.8333 6.25C17.4882 6.25 17.2083 5.97018 17.2083 5.625V4.00888L15.1503 6.06694C14.9062 6.31102 14.5105 6.31102 14.2664 6.06694C14.0223 5.82286 14.0223 5.42714 14.2664 5.18306L16.3244 3.125H14.7083Z"/>
<path d="M10.3333 5C10.6785 5 10.9583 5.27982 10.9583 5.625V6.25H12.2083C12.5535 6.25 12.8333 6.52982 12.8333 6.875C12.8333 7.22018 12.5535 7.5 12.2083 7.5H9.39583C9.14719 7.5 8.90873 7.59877 8.73292 7.77459C8.5571 7.9504 8.45833 8.18886 8.45833 8.4375C8.45833 8.68614 8.5571 8.9246 8.73292 9.10041C8.90873 9.27623 9.14719 9.375 9.39583 9.375H11.2708C11.851 9.375 12.4074 9.60547 12.8176 10.0157C13.2279 10.4259 13.4583 10.9823 13.4583 11.5625C13.4583 12.1427 13.2279 12.6991 12.8176 13.1093C12.4074 13.5195 11.851 13.75 11.2708 13.75H10.9583V14.375C10.9583 14.7202 10.6785 15 10.3333 15C9.98815 15 9.70833 14.7202 9.70833 14.375V13.75H8.45833C8.11315 13.75 7.83333 13.4702 7.83333 13.125C7.83333 12.7798 8.11315 12.5 8.45833 12.5H11.2708C11.5195 12.5 11.7579 12.4012 11.9337 12.2254C12.1096 12.0496 12.2083 11.8111 12.2083 11.5625C12.2083 11.3139 12.1096 11.0754 11.9337 10.8996C11.7579 10.7238 11.5195 10.625 11.2708 10.625H9.39583C8.81567 10.625 8.25927 10.3945 7.84903 9.9843C7.4388 9.57406 7.20833 9.01766 7.20833 8.4375C7.20833 7.85734 7.4388 7.30094 7.84903 6.8907C8.25927 6.48047 8.81567 6.25 9.39583 6.25H9.70833V5.625C9.70833 5.27982 9.98815 5 10.3333 5Z"/>
</symbol>

<symbol id="DotsThreeVertical" viewBox="0 0 19 18">
<path d="M9.33333 9.84375C9.79932 9.84375 10.1771 9.46599 10.1771 9C10.1771 8.53401 9.79932 8.15625 9.33333 8.15625C8.86734 8.15625 8.48958 8.53401 8.48958 9C8.48958 9.46599 8.86734 9.84375 9.33333 9.84375Z"/>
<path d="M9.33333 5.34375C9.79932 5.34375 10.1771 4.96599 10.1771 4.5C10.1771 4.03401 9.79932 3.65625 9.33333 3.65625C8.86734 3.65625 8.48958 4.03401 8.48958 4.5C8.48958 4.96599 8.86734 5.34375 9.33333 5.34375Z"/>
<path d="M9.33333 14.3438C9.79932 14.3438 10.1771 13.966 10.1771 13.5C10.1771 13.034 9.79932 12.6562 9.33333 12.6562C8.86734 12.6562 8.48958 13.034 8.48958 13.5C8.48958 13.966 8.86734 14.3438 9.33333 14.3438Z"/>
</symbol>

<symbol id="Wallet" viewBox="0 0 21 20">
<path fill-rule="evenodd" clip-rule="evenodd" d="M5.04169 4.375C4.87593 4.375 4.71696 4.44085 4.59975 4.55806C4.48253 4.67527 4.41669 4.83424 4.41669 5C4.41669 5.16576 4.48253 5.32473 4.59975 5.44194C4.71696 5.55915 4.87593 5.625 5.04169 5.625H17.5417C17.8732 5.625 18.1911 5.7567 18.4256 5.99112C18.66 6.22554 18.7917 6.54348 18.7917 6.875V15.625C18.7917 15.9565 18.66 16.2745 18.4256 16.5089C18.1911 16.7433 17.8732 16.875 17.5417 16.875H5.04169C4.54441 16.875 4.06749 16.6775 3.71586 16.3258C3.36423 15.9742 3.16669 15.4973 3.16669 15V5C3.16669 4.50272 3.36423 4.02581 3.71586 3.67417C4.06749 3.32254 4.54441 3.125 5.04169 3.125H15.6667C16.0119 3.125 16.2917 3.40482 16.2917 3.75C16.2917 4.09518 16.0119 4.375 15.6667 4.375H5.04169ZM4.41669 6.76777V15C4.41669 15.1658 4.48253 15.3247 4.59975 15.4419C4.71696 15.5592 4.87593 15.625 5.04169 15.625H17.5417V6.875H5.04169C4.82672 6.875 4.61556 6.83809 4.41669 6.76777Z"/>
<path d="M14.7292 12.1875C15.247 12.1875 15.6667 11.7678 15.6667 11.25C15.6667 10.7322 15.247 10.3125 14.7292 10.3125C14.2114 10.3125 13.7917 10.7322 13.7917 11.25C13.7917 11.7678 14.2114 12.1875 14.7292 12.1875Z"/>
</symbol>

<symbol id="DotsThree" viewBox="0 0 22 22">
  <path d="M11 12.0312C11.5695 12.0312 12.0312 11.5695 12.0312 11C12.0312 10.4305 11.5695 9.96875 11 9.96875C10.4305 9.96875 9.96875 10.4305 9.96875 11C9.96875 11.5695 10.4305 12.0312 11 12.0312Z" />
  <path d="M16.5 12.0312C17.0695 12.0312 17.5312 11.5695 17.5312 11C17.5312 10.4305 17.0695 9.96875 16.5 9.96875C15.9305 9.96875 15.4688 10.4305 15.4688 11C15.4688 11.5695 15.9305 12.0312 16.5 12.0312Z" />
  <path d="M5.5 12.0312C6.06954 12.0312 6.53125 11.5695 6.53125 11C6.53125 10.4305 6.06954 9.96875 5.5 9.96875C4.93046 9.96875 4.46875 10.4305 4.46875 11C4.46875 11.5695 4.93046 12.0312 5.5 12.0312Z" />
</symbol>

<symbol id="Warning" viewBox="0 0 16 16">
  <path fill-rule="evenodd" clip-rule="evenodd" d="M8 6C8.27614 6 8.5 6.22386 8.5 6.5V9C8.5 9.27614 8.27614 9.5 8 9.5C7.72386 9.5 7.5 9.27614 7.5 9V6.5C7.5 6.22386 7.72386 6 8 6Z" />
  <path fill-rule="evenodd" clip-rule="evenodd" d="M7.25065 1.70139C7.47831 1.56937 7.73681 1.49984 7.99999 1.49984C8.26316 1.49984 8.52166 1.56937 8.74933 1.70139C8.9766 1.83319 9.16509 2.02259 9.29578 2.25049C9.29601 2.25088 9.29623 2.25126 9.29645 2.25165L14.7955 11.75C14.9269 11.9776 14.9962 12.2358 14.9965 12.4987C14.9967 12.7615 14.9279 13.0198 14.7968 13.2477C14.6658 13.4756 14.4772 13.665 14.2499 13.7971C14.0226 13.9291 13.7646 13.9991 13.5017 14L13.5 14H2.49999L2.49823 14C2.23537 13.9991 1.97737 13.9291 1.75008 13.7971C1.52278 13.665 1.33418 13.4756 1.20315 13.2477C1.07212 13.0198 1.00328 12.7615 1.00351 12.4987C1.00374 12.2358 1.07305 11.9776 1.20448 11.75L6.70353 2.25165C6.70375 2.25126 6.70397 2.25088 6.70419 2.25049C6.83488 2.02259 7.02337 1.83319 7.25065 1.70139ZM7.13749 2.5L7.5702 2.75052L2.0705 12.25C2.07046 12.2501 2.07054 12.2499 2.0705 12.25C2.02676 12.3258 2.00359 12.412 2.00351 12.4996C2.00343 12.5872 2.02638 12.6733 2.07006 12.7492C2.11373 12.8252 2.1766 12.8883 2.25237 12.9324C2.32793 12.9763 2.41368 12.9996 2.50107 13H13.4989C13.5863 12.9996 13.672 12.9763 13.7476 12.9324C13.8234 12.8883 13.8862 12.8252 13.9299 12.7492C13.9736 12.6733 13.9965 12.5872 13.9965 12.4996C13.9964 12.4121 13.9733 12.3261 13.9296 12.2503C13.9296 12.2502 13.9297 12.2504 13.9296 12.2503L8.42852 2.74835C8.38531 2.67285 8.32293 2.6101 8.24768 2.56646C8.17242 2.52282 8.08698 2.49984 7.99999 2.49984C7.913 2.49984 7.82755 2.52282 7.7523 2.56646C7.67705 2.6101 7.61466 2.67285 7.57145 2.74835L7.13749 2.5Z" />
  <path d="M8 12C8.41421 12 8.75 11.6642 8.75 11.25C8.75 10.8358 8.41421 10.5 8 10.5C7.58579 10.5 7.25 10.8358 7.25 11.25C7.25 11.6642 7.58579 12 8 12Z" />
</symbol>

<symbol id="Airplane" viewBox="0 0 16 16">
  <path fill-rule="evenodd" clip-rule="evenodd" d="M11.3653 3.21881C11.3567 3.22945 11.3477 3.23983 11.3382 3.2499L9.35693 5.34365C9.21997 5.48839 9.01015 5.53799 8.82288 5.46989L3.62214 3.57871L2.77857 4.42228L6.7711 7.08397C6.89574 7.16706 6.97656 7.30166 6.99132 7.45072C7.00608 7.59979 6.95323 7.74762 6.84731 7.85355L5.34731 9.35355C5.25354 9.44731 5.12636 9.49999 4.99375 9.49999H3.70086L2.91708 10.2838L4.76607 10.9075C4.91376 10.9573 5.02977 11.0731 5.0798 11.2208L5.70907 13.0776L6.49375 12.2929V11C6.49375 10.8591 6.55318 10.7248 6.65742 10.63L8.16992 9.25502C8.27696 9.15771 8.42091 9.11153 8.56458 9.12841C8.70826 9.14528 8.83759 9.22356 8.91917 9.34303L11.5666 13.22L12.415 12.3716L10.5239 7.17086C10.4556 6.98307 10.5056 6.77266 10.6512 6.63577L12.7288 4.68181C12.9005 4.49676 12.9964 4.25332 12.9964 3.99999C12.9964 3.73409 12.8907 3.47907 12.7027 3.29105C12.5147 3.10302 12.2597 2.99739 11.9938 2.99739C11.7641 2.99739 11.5426 3.07619 11.3653 3.21881ZM13.4832 5.33868C13.8127 4.97203 13.9964 4.49548 13.9964 3.99999C13.9964 3.46887 13.7854 2.9595 13.4098 2.58394C13.0342 2.20838 12.5249 1.99739 11.9938 1.99739C11.4626 1.99739 10.9533 2.20838 10.5777 2.58394C10.5498 2.61184 10.5258 2.64229 10.5059 2.67455L8.85617 4.41793L3.66463 2.5301C3.48206 2.46371 3.27756 2.50908 3.1402 2.64644L1.6402 4.14644C1.53428 4.25236 1.48143 4.40019 1.49619 4.54926C1.51095 4.69833 1.59177 4.83293 1.7164 4.91602L5.70893 7.5777L4.78665 8.49999H3.49375C3.36115 8.49999 3.23397 8.55267 3.1402 8.64644L1.6402 10.1464C1.51789 10.2687 1.46749 10.4456 1.50692 10.614C1.54636 10.7824 1.67004 10.9185 1.83394 10.9738L4.21209 11.776L5.02021 14.1605C5.07569 14.3242 5.21178 14.4476 5.3801 14.4869C5.54841 14.5262 5.72509 14.4758 5.84731 14.3535L7.34731 12.8535C7.44108 12.7598 7.49375 12.6326 7.49375 12.5V11.2212L8.41739 10.3815L11.0808 14.282C11.1648 14.4049 11.2991 14.484 11.4473 14.4978C11.5954 14.5117 11.7421 14.4588 11.8473 14.3535L13.3473 12.8535C13.4847 12.7162 13.53 12.5117 13.4636 12.3291L11.5762 7.13861L13.3679 5.45351C13.3824 5.44194 13.3964 5.42945 13.4098 5.41605C13.4101 5.41578 13.4103 5.4155 13.4106 5.41523L13.4473 5.37855C13.4601 5.36576 13.4721 5.35244 13.4832 5.33868Z" />
</symbol>

<symbol id="House" viewBox="0 0 16 16">
  <path fill-rule="evenodd" clip-rule="evenodd" d="M7.32573 1.93668C7.50998 1.76845 7.75048 1.67517 8 1.67517C8.24952 1.67517 8.49001 1.76845 8.67426 1.93668C8.67451 1.93691 8.67476 1.93713 8.675 1.93735L13.6738 6.47998L13.6808 6.4865C13.7796 6.57982 13.8588 6.69197 13.9136 6.81633C13.9684 6.9407 13.9977 7.07478 13.9999 7.21067L14 7.21876V13.5C14 13.7762 13.7761 14 13.5 14C13.2239 14 13 13.7762 13 13.5V7.22556C12.9998 7.2235 12.9993 7.22149 12.9985 7.21959C12.9977 7.21777 12.9966 7.21609 12.9953 7.21462L8.00123 2.67629L8 2.67517L7.99877 2.67629L3.00474 7.21462C3.00341 7.21609 3.00233 7.21777 3.00152 7.21959C3.00069 7.22149 3.00018 7.2235 3 7.22556V13.5C3 13.7762 2.77614 14 2.5 14C2.22386 14 2 13.7762 2 13.5V7.21876L2.00007 7.21067C2.00226 7.07478 2.03163 6.9407 2.08644 6.81633C2.14124 6.69197 2.22038 6.57982 2.31919 6.4865L2.32623 6.47998L7.325 1.93735C7.32524 1.93713 7.32549 1.93691 7.32573 1.93668Z"/>
  <path fill-rule="evenodd" clip-rule="evenodd" d="M0.5 13.5C0.5 13.2239 0.723858 13 1 13H15C15.2761 13 15.5 13.2239 15.5 13.5C15.5 13.7761 15.2761 14 15 14H1C0.723858 14 0.5 13.7761 0.5 13.5Z" />
  <path fill-rule="evenodd" clip-rule="evenodd" d="M6.29289 9.29289C6.48043 9.10536 6.73478 9 7 9H9C9.26522 9 9.51957 9.10536 9.70711 9.29289C9.89464 9.48043 10 9.73478 10 10V13.5C10 13.7761 9.77614 14 9.5 14C9.22386 14 9 13.7761 9 13.5V10L7 10L7 13.5C7 13.7761 6.77614 14 6.5 14C6.22386 14 6 13.7761 6 13.5V10C6 9.73478 6.10536 9.48043 6.29289 9.29289Z" />
</symbol>

<symbol id="Union" viewBox="0 0 15 24">
<path d="M10.9104 23.6127C13.3845 20.2361 14.7148 16.1683 14.7097 11.9945C14.7046 7.82072 13.3644 3.75612 10.882 0.38542C10.5734 -0.0335289 9.9808 -0.125142 9.55828 0.180797C9.13577 0.486736 9.04337 1.07437 9.35192 1.49332C11.5979 4.543 12.8104 8.2205 12.8151 11.9968C12.8197 15.773 11.6161 19.4534 9.3776 22.5085C9.07009 22.9282 9.16392 23.5156 9.58718 23.8205C10.0104 24.1255 10.6029 24.0324 10.9104 23.6127Z" />
<path d="M10.9204 11.9991C10.9246 15.3779 9.84774 18.6709 7.84484 21.4044C7.53732 21.824 6.9449 21.9171 6.52164 21.6122C6.09838 21.3072 6.00455 20.7198 6.31207 20.3001C8.07933 17.8882 9.02949 14.9827 9.02584 12.0014C9.0222 9.02012 8.06494 6.11684 6.29179 3.7092C5.98324 3.29025 6.07563 2.70261 6.49815 2.39667C6.92067 2.09073 7.51331 2.18234 7.82185 2.60129C9.83143 5.32995 10.9163 8.62034 10.9204 11.9991Z" />
<path d="M7.13125 12.0185C7.13125 9.43975 6.30794 6.92724 4.77931 4.84102C4.47179 4.42133 3.87938 4.32829 3.45612 4.63321C3.03285 4.93814 2.93902 5.52555 3.24654 5.94524C4.53999 7.7105 5.23664 9.83647 5.23664 12.0185C5.23663 14.2004 4.53998 16.3264 3.24653 18.0917C2.93901 18.5114 3.03284 19.0988 3.4561 19.4037C3.87936 19.7086 4.47178 19.6156 4.7793 19.1959C6.30793 17.1097 7.13124 14.5972 7.13125 12.0185Z" />
<path d="M3.34203 12.0184C3.34203 10.2331 2.77205 8.49371 1.71377 7.0494C1.40625 6.62971 0.813833 6.53667 0.39057 6.8416C-0.0326929 7.14652 -0.126523 7.73393 0.180994 8.15362C1.0041 9.27697 1.44742 10.6299 1.44742 12.0184C1.44742 13.4069 1.00409 14.7598 0.180986 15.8832C-0.126532 16.3029 -0.032703 16.8903 0.39056 17.1952C0.813822 17.5001 1.40624 17.4071 1.71376 16.9874C2.77204 15.5431 3.34203 13.8037 3.34203 12.0184Z" />
</symbol>

<symbol id="Symbol" viewBox="0 0 59 57">
<g opacity="0.16">
<path fill-rule="evenodd" clip-rule="evenodd" d="M9.68685 27.6868C4.01882 29.8839 0 35.3893 0 41.8333C0 50.2096 6.79035 57 15.1667 57C21.6107 57 27.1161 52.9812 29.3132 47.3131L9.68685 27.6868Z" />
<path fill-rule="evenodd" clip-rule="evenodd" d="M44.3535 27.6869C38.6855 29.884 34.6667 35.3893 34.6667 41.8333C34.6667 50.2097 41.457 57 49.8334 57C56.2774 57 61.7827 52.9812 63.9798 47.3132L44.3535 27.6869Z" />
<path fill-rule="evenodd" clip-rule="evenodd" d="M44.3535 -8C38.6855 -5.8029 34.6667 -0.29753 34.6667 6.14649C34.6667 14.5228 41.457 21.3132 49.8334 21.3132C56.2774 21.3132 61.7827 17.2943 63.9798 11.6263L44.3535 -8Z" />
<path fill-rule="evenodd" clip-rule="evenodd" d="M9.68685 -6.97983C4.01882 -4.78273 0 0.722642 0 7.16666C0 15.543 6.79035 22.3333 15.1667 22.3333C21.6107 22.3333 27.1161 18.3145 29.3132 12.6465L9.68685 -6.97983Z" />
</g>
</symbol>

<symbol id="Sort" viewBox="0 0 12 12">
  <path fill-rule="evenodd" clip-rule="evenodd" d="M3.85983 6.85983C4.00628 6.71339 4.24372 6.71339 4.39017 6.85983L6 8.46967L7.60984 6.85983C7.75628 6.71339 7.99372 6.71339 8.14016 6.85983C8.28661 7.00628 8.28661 7.24372 8.14016 7.39017L6.26516 9.26516C6.11872 9.41161 5.88128 9.41161 5.73484 9.26516L3.85983 7.39017C3.71339 7.24372 3.71339 7.00628 3.85983 6.85983Z" />
  <path fill-rule="evenodd" clip-rule="evenodd" d="M3.85983 5.14017C4.00628 5.28661 4.24372 5.28661 4.39017 5.14017L6 3.53033L7.60984 5.14017C7.75628 5.28661 7.99372 5.28661 8.14016 5.14017C8.28661 4.99372 8.28661 4.75628 8.14016 4.60983L6.26516 2.73484C6.11872 2.58839 5.88128 2.58839 5.73484 2.73484L3.85983 4.60983C3.71339 4.75628 3.71339 4.99372 3.85983 5.14017Z" />
</symbol>

<symbol id="FirstAid" viewBox="0 0 16 16" >
  <path d="M13.5 5.5H10.5V2.5C10.5 2.23478 10.3946 1.98043 10.2071 1.79289C10.0196 1.60536 9.76522 1.5 9.5 1.5H6.5C6.23478 1.5 5.98043 1.60536 5.79289 1.79289C5.60536 1.98043 5.5 2.23478 5.5 2.5V5.5H2.5C2.23478 5.5 1.98043 5.60536 1.79289 5.79289C1.60536 5.98043 1.5 6.23478 1.5 6.5V9.5C1.5 9.76522 1.60536 10.0196 1.79289 10.2071C1.98043 10.3946 2.23478 10.5 2.5 10.5H5.5V13.5C5.5 13.7652 5.60536 14.0196 5.79289 14.2071C5.98043 14.3946 6.23478 14.5 6.5 14.5H9.5C9.76522 14.5 10.0196 14.3946 10.2071 14.2071C10.3946 14.0196 10.5 13.7652 10.5 13.5V10.5H13.5C13.7652 10.5 14.0196 10.3946 14.2071 10.2071C14.3946 10.0196 14.5 9.76522 14.5 9.5V6.5C14.5 6.23478 14.3946 5.98043 14.2071 5.79289C14.0196 5.60536 13.7652 5.5 13.5 5.5ZM13.5 9.5H10C9.86739 9.5 9.74021 9.55268 9.64645 9.64645C9.55268 9.74021 9.5 9.86739 9.5 10V13.5H6.5V10C6.5 9.86739 6.44732 9.74021 6.35355 9.64645C6.25979 9.55268 6.13261 9.5 6 9.5H2.5V6.5H6C6.13261 6.5 6.25979 6.44732 6.35355 6.35355C6.44732 6.25979 6.5 6.13261 6.5 6V2.5H9.5V6C9.5 6.13261 9.55268 6.25979 9.64645 6.35355C9.74021 6.44732 9.86739 6.5 10 6.5H13.5V9.5Z" />
</symbol>

<symbol id="Cart" viewBox="0 0 16 16" >
  <path d="M14.3837 3.67937C14.3368 3.62321 14.2781 3.57804 14.2118 3.54704C14.1455 3.51605 14.0732 3.49999 14 3.5H3.9175L3.5375 1.41062C3.51657 1.29542 3.45587 1.19121 3.36598 1.11617C3.27609 1.04113 3.16272 1.00002 3.04562 1H1.5C1.36739 1 1.24021 1.05268 1.14645 1.14645C1.05268 1.24021 1 1.36739 1 1.5C1 1.63261 1.05268 1.75979 1.14645 1.85355C1.24021 1.94732 1.36739 2 1.5 2H2.625L4.2225 10.7681C4.26956 11.0282 4.38448 11.2712 4.55562 11.4725C4.3194 11.6931 4.14891 11.9749 4.06304 12.2865C3.97717 12.5981 3.97928 12.9274 4.06914 13.2379C4.15901 13.5484 4.33311 13.828 4.57214 14.0455C4.81117 14.2631 5.1058 14.4103 5.42335 14.4706C5.7409 14.531 6.06896 14.5022 6.37116 14.3875C6.67335 14.2728 6.93788 14.0767 7.1354 13.8208C7.33292 13.5649 7.45572 13.2594 7.49018 12.938C7.52464 12.6166 7.46941 12.2919 7.33063 12H10.1694C10.0575 12.2342 9.99963 12.4905 10 12.75C10 13.0961 10.1026 13.4345 10.2949 13.7222C10.4872 14.01 10.7605 14.2343 11.0803 14.3668C11.4001 14.4992 11.7519 14.5339 12.0914 14.4664C12.4309 14.3989 12.7427 14.2322 12.9874 13.9874C13.2322 13.7427 13.3989 13.4309 13.4664 13.0914C13.5339 12.7519 13.4992 12.4001 13.3668 12.0803C13.2343 11.7605 13.01 11.4872 12.7222 11.2949C12.4345 11.1026 12.0961 11 11.75 11H5.69812C5.58103 11 5.46766 10.9589 5.37777 10.8838C5.28788 10.8088 5.22718 10.7046 5.20625 10.5894L5.00812 9.5H12.2581C12.6094 9.49995 12.9495 9.37661 13.2192 9.15149C13.4889 8.92637 13.671 8.61375 13.7338 8.26812L14.4937 4.08938C14.5066 4.01715 14.5034 3.94298 14.4844 3.87212C14.4654 3.80127 14.431 3.73546 14.3837 3.67937ZM6.5 12.75C6.5 12.8983 6.45601 13.0433 6.3736 13.1667C6.29119 13.29 6.17406 13.3861 6.03701 13.4429C5.89997 13.4997 5.74917 13.5145 5.60368 13.4856C5.4582 13.4567 5.32456 13.3852 5.21967 13.2803C5.11478 13.1754 5.04335 13.0418 5.01441 12.8963C4.98547 12.7508 5.00032 12.6 5.05709 12.463C5.11386 12.3259 5.20999 12.2088 5.33332 12.1264C5.45666 12.044 5.60166 12 5.75 12C5.94891 12 6.13968 12.079 6.28033 12.2197C6.42098 12.3603 6.5 12.5511 6.5 12.75ZM12.5 12.75C12.5 12.8983 12.456 13.0433 12.3736 13.1667C12.2912 13.29 12.1741 13.3861 12.037 13.4429C11.9 13.4997 11.7492 13.5145 11.6037 13.4856C11.4582 13.4567 11.3246 13.3852 11.2197 13.2803C11.1148 13.1754 11.0433 13.0418 11.0144 12.8963C10.9855 12.7508 11.0003 12.6 11.0571 12.463C11.1139 12.3259 11.21 12.2088 11.3333 12.1264C11.4567 12.044 11.6017 12 11.75 12C11.9489 12 12.1397 12.079 12.2803 12.2197C12.421 12.3603 12.5 12.5511 12.5 12.75ZM12.75 8.08937C12.729 8.2049 12.668 8.30935 12.5778 8.38443C12.4875 8.45951 12.3737 8.50042 12.2563 8.5H4.82625L4.09937 4.5H13.4006L12.75 8.08937Z" />
</symbol>

<symbol id="Monitor" viewBox="0 0 16 16" >
  <path fill-rule="evenodd" clip-rule="evenodd" d="M4.64645 1.14645C4.84171 0.951184 5.15829 0.951184 5.35355 1.14645L8 3.79289L10.6464 1.14645C10.8417 0.951184 11.1583 0.951184 11.3536 1.14645C11.5488 1.34171 11.5488 1.65829 11.3536 1.85355L8.35355 4.85355C8.15829 5.04882 7.84171 5.04882 7.64645 4.85355L4.64645 1.85355C4.45118 1.65829 4.45118 1.34171 4.64645 1.14645Z" />
  <path fill-rule="evenodd" clip-rule="evenodd" d="M13 13C13.2761 13 13.5 12.7761 13.5 12.5V5.5C13.5 5.22386 13.2761 5 13 5H3C2.72386 5 2.5 5.22386 2.5 5.5V12.5C2.5 12.7761 2.72386 13 3 13H5.5C5.77614 13 6 13.2239 6 13.5C6 13.7761 5.77614 14 5.5 14H3C2.17157 14 1.5 13.3284 1.5 12.5V5.5C1.5 4.67157 2.17157 4 3 4H13C13.8284 4 14.5 4.67157 14.5 5.5V12.5C14.5 13.3284 13.8284 14 13 14H10.5C10.2239 14 10 13.7761 10 13.5C10 13.2239 10.2239 13 10.5 13H13Z" />
  <path d="M8.70711 12.2929C9.09763 12.6834 9.09763 13.3166 8.70711 13.7071C8.31658 14.0976 7.68342 14.0976 7.29289 13.7071C6.90237 13.3166 6.90237 12.6834 7.29289 12.2929C7.68342 11.9024 8.31658 11.9024 8.70711 12.2929Z" />
  <path fill-rule="evenodd" clip-rule="evenodd" d="M5.87868 11.5858C5.68342 11.3905 5.68342 11.0739 5.87868 10.8787C6.15726 10.6001 6.48797 10.3791 6.85195 10.2284C7.21593 10.0776 7.60603 10 8 10C8.39397 10 8.78407 10.0776 9.14805 10.2284C9.51203 10.3791 9.84274 10.6001 10.1213 10.8787C10.3166 11.0739 10.3166 11.3905 10.1213 11.5858C9.92606 11.781 9.60948 11.781 9.41421 11.5858C9.2285 11.4001 9.00802 11.2528 8.76537 11.1522C8.52272 11.0517 8.26264 11 8 11C7.73736 11 7.47728 11.0517 7.23463 11.1522C6.99198 11.2528 6.7715 11.4001 6.58579 11.5858C6.39052 11.781 6.07394 11.781 5.87868 11.5858Z" />
  <path fill-rule="evenodd" clip-rule="evenodd" d="M4.46447 10.1716C4.2692 9.97631 4.2692 9.65973 4.46447 9.46447C4.92876 9.00017 5.47996 8.63188 6.08658 8.3806C6.69321 8.12933 7.34339 8 8 8C8.65661 8 9.30679 8.12933 9.91342 8.3806C10.52 8.63188 11.0712 9.00017 11.5355 9.46447C11.7308 9.65973 11.7308 9.97631 11.5355 10.1716C11.3403 10.3668 11.0237 10.3668 10.8284 10.1716C10.457 9.80014 10.016 9.5055 9.53073 9.30448C9.04543 9.10346 8.52529 9 8 9C7.47471 9 6.95457 9.10346 6.46927 9.30448C5.98396 9.5055 5.54301 9.80014 5.17157 10.1716C4.97631 10.3668 4.65973 10.3668 4.46447 10.1716Z" />
</symbol>

<symbol id="Umbrella" viewBox="0 0 16 16" >
  <path d="M14.9996 7.91437C14.8854 6.60556 14.4067 5.35496 13.6177 4.30449C12.8287 3.25403 11.761 2.44577 10.5358 1.97145C9.31064 1.49714 7.97704 1.37575 6.68637 1.62108C5.3957 1.86641 4.19965 2.46862 3.23395 3.35937C1.94473 4.54375 1.14823 6.16977 1.0027 7.91437C0.99083 8.05245 1.00779 8.19149 1.05251 8.32266C1.09722 8.45383 1.16872 8.57428 1.26245 8.67636C1.35618 8.77844 1.47011 8.85992 1.597 8.91563C1.7239 8.97134 1.86099 9.00007 1.99957 9H7.49957V12.5C7.49957 13.0304 7.71029 13.5391 8.08536 13.9142C8.46043 14.2893 8.96914 14.5 9.49957 14.5C10.03 14.5 10.5387 14.2893 10.9138 13.9142C11.2889 13.5391 11.4996 13.0304 11.4996 12.5C11.4996 12.3674 11.4469 12.2402 11.3531 12.1464C11.2594 12.0527 11.1322 12 10.9996 12C10.867 12 10.7398 12.0527 10.646 12.1464C10.5523 12.2402 10.4996 12.3674 10.4996 12.5C10.4996 12.7652 10.3942 13.0196 10.2067 13.2071C10.0191 13.3946 9.76479 13.5 9.49957 13.5C9.23436 13.5 8.98 13.3946 8.79247 13.2071C8.60493 13.0196 8.49957 12.7652 8.49957 12.5V9H13.9996C14.1384 9.00051 14.2759 8.9721 14.4031 8.91658C14.5304 8.86105 14.6447 8.77964 14.7388 8.67751C14.8328 8.57539 14.9046 8.45479 14.9495 8.3234C14.9944 8.19201 15.0115 8.05271 14.9996 7.91437ZM1.99957 8C2.11039 6.71199 2.63361 5.49405 3.49156 4.527C4.3495 3.55995 5.49643 2.89535 6.76207 2.63187C6.02957 3.625 5.1152 5.38187 5.0102 8H1.99957ZM6.00895 8C6.09582 6.07687 6.66707 4.69937 7.1527 3.86C7.39215 3.44303 7.6761 3.05325 7.99957 2.6975C8.32244 3.05331 8.60577 3.44309 8.84457 3.86C9.67457 5.29375 9.93707 6.83 9.98832 8H6.00895ZM10.9871 8C10.8821 5.38187 9.9677 3.625 9.23707 2.62875C10.5035 2.89164 11.6513 3.55648 12.5094 4.52429C13.3675 5.49211 13.8902 6.71117 13.9996 8H10.9871Z" />
</symbol>

<symbol id="CopySimple" viewBox="0 0 12 12">
<path d="M8.625 3H1.875C1.77554 3 1.68016 3.03951 1.60984 3.10984C1.53951 3.18016 1.5 3.27554 1.5 3.375V10.125C1.5 10.2245 1.53951 10.3198 1.60984 10.3902C1.68016 10.4605 1.77554 10.5 1.875 10.5H8.625C8.72446 10.5 8.81984 10.4605 8.89017 10.3902C8.96049 10.3198 9 10.2245 9 10.125V3.375C9 3.27554 8.96049 3.18016 8.89017 3.10984C8.81984 3.03951 8.72446 3 8.625 3ZM8.25 9.75H2.25V3.75H8.25V9.75ZM10.5 1.875V8.625C10.5 8.72446 10.4605 8.81984 10.3902 8.89017C10.3198 8.96049 10.2245 9 10.125 9C10.0255 9 9.93016 8.96049 9.85983 8.89017C9.78951 8.81984 9.75 8.72446 9.75 8.625V2.25H3.375C3.27554 2.25 3.18016 2.21049 3.10984 2.14016C3.03951 2.06984 3 1.97446 3 1.875C3 1.77554 3.03951 1.68016 3.10984 1.60984C3.18016 1.53951 3.27554 1.5 3.375 1.5H10.125C10.2245 1.5 10.3198 1.53951 10.3902 1.60984C10.4605 1.68016 10.5 1.77554 10.5 1.875Z" />
</symbol>

<symbol id="Visa" viewBox="0 0 25 16" fill="none" >
  <rect x="1" y="0.5" width="23" height="15" rx="2.5" stroke="#E5E6E6"/>
<path d="M5.01085 10.7945L4.36578 7.89991L4.04324 6.45263L3.7207 5.00535H4.93228L5.92884 9.47538L8.18245 5.00535H9.3899L6.4788 10.7945H5.01085Z" fill="#1E4841"/>
<path d="M9.11879 10.7945L9.92927 5.00535H11.0705L10.2601 10.7945H9.11879Z" fill="#1E4841"/>
<path d="M13.1347 10.902C12.8094 10.902 12.5048 10.851 12.2208 10.749C11.9396 10.647 11.7025 10.4995 11.5096 10.3065C11.3166 10.1136 11.1898 9.88475 11.1291 9.6201L12.258 9.22314C12.2773 9.31686 12.3325 9.40508 12.4234 9.48778C12.5172 9.56773 12.6385 9.63389 12.7873 9.68626C12.9389 9.73589 13.1071 9.7607 13.2918 9.7607C13.471 9.7607 13.6433 9.73451 13.8087 9.68213C13.9768 9.62699 14.1174 9.55118 14.2305 9.4547C14.3435 9.35821 14.4083 9.24519 14.4248 9.11562C14.4441 8.98606 14.4083 8.87855 14.3173 8.79309C14.2263 8.70763 14.1037 8.64009 13.9493 8.59047C13.7977 8.53809 13.6391 8.49812 13.4737 8.47055C13.0685 8.4099 12.7101 8.31204 12.3986 8.17696C12.0899 8.03912 11.8569 7.85029 11.6998 7.61045C11.5427 7.36786 11.4903 7.06049 11.5427 6.68833C11.595 6.32996 11.7411 6.01707 11.981 5.74967C12.2208 5.48227 12.5172 5.27413 12.87 5.12527C13.2229 4.97641 13.5923 4.90198 13.9782 4.90198C14.298 4.90198 14.5985 4.95298 14.8797 5.05498C15.1636 5.15697 15.4034 5.30446 15.5992 5.49743C15.7977 5.6904 15.9258 5.92196 15.9837 6.19212L14.8507 6.58082C14.8314 6.48709 14.7749 6.40025 14.6812 6.32031C14.5902 6.24036 14.4689 6.17558 14.3173 6.12596C14.1684 6.07634 14.0017 6.05153 13.817 6.05153C13.6405 6.04877 13.4682 6.07496 13.3001 6.1301C13.1347 6.18523 12.9954 6.26104 12.8824 6.35753C12.7694 6.45401 12.7032 6.56428 12.6839 6.68833C12.6619 6.85098 12.6922 6.97365 12.7749 7.05635C12.8576 7.13906 12.9748 7.19832 13.1264 7.23416C13.2808 7.27 13.4503 7.3017 13.635 7.32927C14.0182 7.38716 14.3655 7.49054 14.677 7.6394C14.9886 7.78551 15.227 7.98123 15.3924 8.22658C15.5578 8.46917 15.6157 8.76552 15.5661 9.11562C15.5192 9.474 15.3759 9.78688 15.136 10.0543C14.8962 10.3217 14.5999 10.5298 14.247 10.6787C13.8941 10.8275 13.5234 10.902 13.1347 10.902Z" fill="#1E4841"/>
<path d="M18.2506 5.00535H19.549L20.8392 10.7945H19.6276L19.4126 9.83513H17.0349L16.5511 10.7945H15.3395L18.2506 5.00535ZM17.6097 8.69385H19.1562L18.6765 6.57255L17.6097 8.69385Z" fill="#1E4841"/>
</symbol>

<symbol id="MC" viewBox="0 0 25 16" fill="none" >
  <rect x="1" y="0.5" width="23" height="15" rx="2.5" stroke="#E5E6E6"/>
  <circle opacity="0.8" cx="15.5" cy="8" r="5" fill="#BBF49C"/>
  <circle cx="9.5" cy="8" r="5" fill="#415C58"/>
  <path opacity="0.8" d="M12.5 12.0004C13.7144 11.0882 14.5 9.63582 14.5 8C14.5 6.36418 13.7144 4.91184 12.5 3.99963C11.2856 4.91184 10.5 6.36418 10.5 8C10.5 9.63582 11.2856 11.0882 12.5 12.0004Z" fill="#1E4841"/>
</symbol>

<symbol id="Lightning" viewBox="0 0 16 16" >
  <path d="M13.4869 7.38562C13.468 7.30549 13.4295 7.23126 13.375 7.16955C13.3205 7.10784 13.2516 7.06055 13.1744 7.03187L9.57377 5.68125L10.49 1.09812C10.5108 0.991636 10.4963 0.88129 10.4489 0.783736C10.4014 0.686183 10.3235 0.606715 10.2269 0.557324C10.1303 0.507933 10.0202 0.4913 9.91337 0.509933C9.80649 0.528567 9.70858 0.581458 9.6344 0.660623L2.6344 8.16062C2.57754 8.22053 2.53641 8.29359 2.51469 8.37327C2.49296 8.45295 2.4913 8.53677 2.50987 8.61724C2.52845 8.69772 2.56666 8.77234 2.62111 8.83444C2.67556 8.89654 2.74454 8.94419 2.8219 8.97312L6.42377 10.3237L5.51002 14.9019C5.48927 15.0084 5.50372 15.1187 5.55119 15.2163C5.59866 15.3138 5.67657 15.3933 5.77316 15.4427C5.86976 15.4921 5.97979 15.5087 6.08667 15.4901C6.19355 15.4714 6.29146 15.4185 6.36565 15.3394L13.3656 7.83937C13.4215 7.77945 13.4617 7.70674 13.4829 7.62762C13.504 7.5485 13.5054 7.4654 13.4869 7.38562ZM6.83565 13.375L7.49002 10.1012C7.51344 9.98514 7.49488 9.86449 7.43765 9.76079C7.38042 9.65709 7.28824 9.57708 7.17752 9.535L3.87502 8.29437L9.16377 2.62812L8.51002 5.90187C8.4866 6.01798 8.50516 6.13863 8.56239 6.24233C8.61962 6.34603 8.7118 6.42604 8.82252 6.46812L12.1225 7.70562L6.83565 13.375Z" />
</symbol>

</svg>
