<?xml version="1.0" encoding="UTF-8"?>
<svg xmlns="http://www.w3.org/2000/svg" xmlns:xlink="http://www.w3.org/1999/xlink" width="0" height="0">
<symbol id="ChatTeardropDots" viewBox="0 0 18 18">
<path fill-rule="evenodd" clip-rule="evenodd" d="M9.28124 2.8125C7.7148 2.8125 6.21252 3.43476 5.10489 4.5424C3.99725 5.65004 3.37499 7.15232 3.37499 8.71875V14.625H9.28124C10.0569 14.625 10.8249 14.4722 11.5415 14.1754C12.258 13.8786 12.9091 13.4435 13.4576 12.8951C14.006 12.3467 14.4411 11.6956 14.7379 10.979C15.0347 10.2624 15.1875 9.49437 15.1875 8.71875C15.1875 7.94313 15.0347 7.1751 14.7379 6.45853C14.4411 5.74195 14.006 5.09085 13.4576 4.5424C12.9091 3.99395 12.258 3.5589 11.5415 3.26209C10.8249 2.96527 10.0569 2.8125 9.28124 2.8125ZM9.28124 15.75H3.35696C3.21196 15.7513 3.06813 15.7239 2.93378 15.6693C2.79807 15.6141 2.67479 15.5324 2.57121 15.4288C2.46762 15.3252 2.38584 15.2019 2.33068 15.0662C2.27607 14.9319 2.24865 14.788 2.24999 14.643V8.71875C2.24999 6.85395 2.99078 5.06552 4.30939 3.74691C5.62801 2.42829 7.41643 1.6875 9.28124 1.6875C10.2046 1.6875 11.1189 1.86937 11.972 2.22272C12.825 2.57608 13.6002 3.09399 14.2531 3.74691C14.906 4.39982 15.4239 5.17494 15.7773 6.02801C16.1306 6.88108 16.3125 7.79539 16.3125 8.71875C16.3125 9.64211 16.1306 10.5564 15.7773 11.4095C15.4239 12.2626 14.906 13.0377 14.2531 13.6906C13.6002 14.3435 12.825 14.8614 11.972 15.2148C11.1189 15.5681 10.2046 15.75 9.28124 15.75Z"/>
<path d="M5.90624 9.84375C6.37223 9.84375 6.74999 9.46599 6.74999 9C6.74999 8.53401 6.37223 8.15625 5.90624 8.15625C5.44025 8.15625 5.06249 8.53401 5.06249 9C5.06249 9.46599 5.44025 9.84375 5.90624 9.84375Z"/>
<path d="M9.28124 9.84375C9.74723 9.84375 10.125 9.46599 10.125 9C10.125 8.53401 9.74723 8.15625 9.28124 8.15625C8.81525 8.15625 8.43749 8.53401 8.43749 9C8.43749 9.46599 8.81525 9.84375 9.28124 9.84375Z"/>
<path d="M12.6562 9.84375C13.1222 9.84375 13.5 9.46599 13.5 9C13.5 8.53401 13.1222 8.15625 12.6562 8.15625C12.1902 8.15625 11.8125 8.53401 11.8125 9C11.8125 9.46599 12.1902 9.84375 12.6562 9.84375Z"/>
</symbol>

<symbol id="MagnifyingGlass" viewBox="0 0 18 18">
<path fill-rule="evenodd" clip-rule="evenodd" d="M8.15625 2.8125C5.20498 2.8125 2.8125 5.20498 2.8125 8.15625C2.8125 11.1075 5.20498 13.5 8.15625 13.5C11.1075 13.5 13.5 11.1075 13.5 8.15625C13.5 5.20498 11.1075 2.8125 8.15625 2.8125ZM1.6875 8.15625C1.6875 4.58366 4.58366 1.6875 8.15625 1.6875C11.7288 1.6875 14.625 4.58366 14.625 8.15625C14.625 11.7288 11.7288 14.625 8.15625 14.625C4.58366 14.625 1.6875 11.7288 1.6875 8.15625Z"/>
<path fill-rule="evenodd" clip-rule="evenodd" d="M11.9351 11.9351C12.1547 11.7154 12.5109 11.7154 12.7306 11.9351L16.1477 15.3523C16.3674 15.5719 16.3674 15.9281 16.1477 16.1477C15.9281 16.3674 15.5719 16.3674 15.3523 16.1477L11.9351 12.7306C11.7154 12.5109 11.7154 12.1547 11.9351 11.9351Z"/>
</symbol>

<symbol id="Badge" viewBox="0 0 14 14">
<rect x="3" y="3" width="8" height="8" rx="4"/>
</symbol>

<symbol id="Bell" viewBox="0 0 18 18">
<path fill-rule="evenodd" clip-rule="evenodd" d="M9.03144 2.8125C6.58329 2.79922 4.51065 4.88682 4.51406 7.31172L4.51407 7.31251L4.51407 7.87501C4.51407 10.4713 3.96969 12.0349 3.4473 12.9375H14.5527C14.0303 12.0349 13.4859 10.4713 13.4859 7.87501V7.3758C13.4859 4.88335 11.4965 2.83147 9.03144 2.8125ZM3.38907 7.31291C3.385 4.26753 5.96171 1.6704 9.03829 1.68752L9.03942 1.68753C12.1429 1.71104 14.6109 4.28561 14.6109 7.3758V7.87501C14.6109 10.3125 15.121 11.6738 15.5266 12.3744L15.527 12.375C15.6256 12.5457 15.6775 12.7394 15.6777 12.9365C15.6779 13.1337 15.6263 13.3274 15.528 13.4983C15.4297 13.6692 15.2883 13.8113 15.1178 13.9103C14.9473 14.0093 14.7538 14.0618 14.5567 14.0625L14.5547 14.0625H3.44532L3.44333 14.0625C3.24619 14.0618 3.05269 14.0093 2.88222 13.9103C2.71175 13.8113 2.5703 13.6692 2.47203 13.4983C2.37376 13.3274 2.32212 13.1337 2.3223 12.9365C2.32247 12.7394 2.37445 12.5457 2.47302 12.375L2.47336 12.3744C2.87899 11.6738 3.38907 10.3125 3.38907 7.87501V7.31291Z"/>
<path fill-rule="evenodd" clip-rule="evenodd" d="M6.75 12.9375C7.06066 12.9375 7.3125 13.1894 7.3125 13.5V14.0625C7.3125 14.5101 7.49029 14.9393 7.80676 15.2558C8.12323 15.5722 8.55245 15.75 9 15.75C9.44756 15.75 9.87678 15.5722 10.1932 15.2558C10.5097 14.9393 10.6875 14.5101 10.6875 14.0625V13.5C10.6875 13.1894 10.9393 12.9375 11.25 12.9375C11.5607 12.9375 11.8125 13.1894 11.8125 13.5V14.0625C11.8125 14.8084 11.5162 15.5238 10.9887 16.0513C10.4613 16.5787 9.74592 16.875 9 16.875C8.25408 16.875 7.53871 16.5787 7.01126 16.0513C6.48382 15.5238 6.1875 14.8084 6.1875 14.0625V13.5C6.1875 13.1894 6.43934 12.9375 6.75 12.9375Z"/>
</symbol>

</svg>
