<?xml version="1.0" encoding="UTF-8"?>
<svg xmlns="http://www.w3.org/2000/svg" xmlns:xlink="http://www.w3.org/1999/xlink" width="0" height="0">

<svg id="CaretLeft" viewBox="0 0 14 14" >
  <path fill-rule="evenodd" clip-rule="evenodd" d="M8.62186 10.8094C8.79271 10.6385 8.79271 10.3615 8.62186 10.1906L5.43122 7L8.62186 3.80936C8.79271 3.6385 8.79271 3.36149 8.62186 3.19064C8.45101 3.01979 8.174 3.01979 8.00314 3.19064L4.50314 6.69064C4.33229 6.86149 4.33229 7.1385 4.50314 7.30936L8.00314 10.8094C8.174 10.9802 8.451 10.9802 8.62186 10.8094Z" />
</svg>

<symbol id="CaretRight" viewBox="0 0 14 14">
  <path fill-rule="evenodd" clip-rule="evenodd" d="M5.37814 10.8094C5.20729 10.6385 5.20729 10.3615 5.37814 10.1906L8.56878 7L5.37814 3.80936C5.20729 3.6385 5.20729 3.36149 5.37814 3.19064C5.54899 3.01979 5.826 3.01979 5.99686 3.19064L9.49686 6.69064C9.66771 6.86149 9.66771 7.1385 9.49686 7.30936L5.99686 10.8094C5.826 10.9802 5.549 10.9802 5.37814 10.8094Z" />
</symbol>

<symbol id="CaretDown" viewBox="0 0 12 12">
  <path fill-rule="evenodd" clip-rule="evenodd" d="M2.73483 4.60983C2.88128 4.46339 3.11872 4.46339 3.26517 4.60983L6 7.34467L8.73484 4.60983C8.88128 4.46339 9.11872 4.46339 9.26517 4.60983C9.41161 4.75628 9.41161 4.99372 9.26517 5.14017L6.26516 8.14016C6.11872 8.28661 5.88128 8.28661 5.73484 8.14016L2.73483 5.14017C2.58839 4.99372 2.58839 4.75628 2.73483 4.60983Z" />
</symbol>

<symbol id="Sort" viewBox="0 0 12 12">
  <path fill-rule="evenodd" clip-rule="evenodd" d="M3.85983 6.85983C4.00628 6.71339 4.24372 6.71339 4.39017 6.85983L6 8.46967L7.60984 6.85983C7.75628 6.71339 7.99372 6.71339 8.14016 6.85983C8.28661 7.00628 8.28661 7.24372 8.14016 7.39017L6.26516 9.26516C6.11872 9.41161 5.88128 9.41161 5.73484 9.26516L3.85983 7.39017C3.71339 7.24372 3.71339 7.00628 3.85983 6.85983Z" />
  <path fill-rule="evenodd" clip-rule="evenodd" d="M3.85983 5.14017C4.00628 5.28661 4.24372 5.28661 4.39017 5.14017L6 3.53033L7.60984 5.14017C7.75628 5.28661 7.99372 5.28661 8.14016 5.14017C8.28661 4.99372 8.28661 4.75628 8.14016 4.60983L6.26516 2.73484C6.11872 2.58839 5.88128 2.58839 5.73484 2.73484L3.85983 4.60983C3.71339 4.75628 3.71339 4.99372 3.85983 5.14017Z" />
</symbol>

</svg>
