<?xml version="1.0" encoding="UTF-8"?>
<svg xmlns="http://www.w3.org/2000/svg" xmlns:xlink="http://www.w3.org/1999/xlink" width="0" height="0">
<symbol id="CoinIn" viewBox="0 0 20 20">
<path fill-rule="evenodd" clip-rule="evenodd" d="M10 3.125C13.797 3.125 16.875 6.20304 16.875 10C16.875 13.797 13.797 16.875 10 16.875C6.20304 16.875 3.125 13.797 3.125 10V8.75046C3.125 8.40528 2.84518 8.125 2.5 8.125C2.15482 8.125 1.875 8.40482 1.875 8.75V10C1.875 14.4873 5.51269 18.125 10 18.125C14.4873 18.125 18.125 14.4873 18.125 10C18.125 5.51269 14.4873 1.875 10 1.875L8.7506 1.875L8.75001 3.125L10 3.125ZM8.125 2.5C8.125 2.84518 8.40483 3.125 8.75001 3.125L8.7506 1.875C8.40542 1.875 8.125 2.15482 8.125 2.5Z"/>
<path fill-rule="evenodd" clip-rule="evenodd" d="M2.5 5C2.15482 5 1.875 5.27982 1.875 5.625C1.875 5.97018 2.15482 6.25 2.5 6.25H5.625C5.97018 6.25 6.25 5.97018 6.25 5.625V2.5C6.25 2.15482 5.97018 1.875 5.625 1.875C5.27982 1.875 5 2.15482 5 2.5V4.11612L2.94194 2.05806C2.69786 1.81398 2.30214 1.81398 2.05806 2.05806C1.81398 2.30214 1.81398 2.69786 2.05806 2.94194L4.11612 5H2.5Z"/>
<path d="M10 5C10.3452 5 10.625 5.27982 10.625 5.625V6.25H11.875C12.2202 6.25 12.5 6.52982 12.5 6.875C12.5 7.22018 12.2202 7.5 11.875 7.5H9.0625C8.81386 7.5 8.5754 7.59877 8.39959 7.77459C8.22377 7.9504 8.125 8.18886 8.125 8.4375C8.125 8.68614 8.22377 8.9246 8.39959 9.10041C8.5754 9.27623 8.81386 9.375 9.0625 9.375H10.9375C11.5177 9.375 12.0741 9.60547 12.4843 10.0157C12.8945 10.4259 13.125 10.9823 13.125 11.5625C13.125 12.1427 12.8945 12.6991 12.4843 13.1093C12.0741 13.5195 11.5177 13.75 10.9375 13.75H10.625V14.375C10.625 14.7202 10.3452 15 10 15C9.65482 15 9.375 14.7202 9.375 14.375V13.75H8.125C7.77982 13.75 7.5 13.4702 7.5 13.125C7.5 12.7798 7.77982 12.5 8.125 12.5H10.9375C11.1861 12.5 11.4246 12.4012 11.6004 12.2254C11.7762 12.0496 11.875 11.8111 11.875 11.5625C11.875 11.3139 11.7762 11.0754 11.6004 10.8996C11.4246 10.7238 11.1861 10.625 10.9375 10.625H9.0625C8.48234 10.625 7.92594 10.3945 7.5157 9.9843C7.10547 9.57406 6.875 9.01766 6.875 8.4375C6.875 7.85734 7.10547 7.30094 7.5157 6.8907C7.92594 6.48047 8.48234 6.25 9.0625 6.25H9.375V5.625C9.375 5.27982 9.65482 5 10 5Z"/>
</symbol>

<symbol id="CoinOut" viewBox="0 0 21 20">
<path fill-rule="evenodd" clip-rule="evenodd" d="M10.3333 3.125C6.53637 3.125 3.45833 6.20304 3.45833 10C3.45833 13.797 6.53637 16.875 10.3333 16.875C14.1303 16.875 17.2083 13.797 17.2083 10V8.75046C17.2083 8.40528 17.4882 8.125 17.8333 8.125C18.1785 8.125 18.4583 8.40482 18.4583 8.75V10C18.4583 14.4873 14.8206 18.125 10.3333 18.125C5.84601 18.125 2.20833 14.4873 2.20833 10C2.20833 5.51269 5.84601 1.875 10.3333 1.875L11.5827 1.875L11.5833 3.125L10.3333 3.125ZM12.2083 2.5C12.2083 2.84518 11.9285 3.125 11.5833 3.125L11.5827 1.875C11.9279 1.875 12.2083 2.15482 12.2083 2.5Z"/>
<path fill-rule="evenodd" clip-rule="evenodd" d="M14.7083 3.125C14.3632 3.125 14.0833 2.84518 14.0833 2.5C14.0833 2.15482 14.3632 1.875 14.7083 1.875H17.8333C18.1785 1.875 18.4583 2.15482 18.4583 2.5V5.625C18.4583 5.97018 18.1785 6.25 17.8333 6.25C17.4882 6.25 17.2083 5.97018 17.2083 5.625V4.00888L15.1503 6.06694C14.9062 6.31102 14.5105 6.31102 14.2664 6.06694C14.0223 5.82286 14.0223 5.42714 14.2664 5.18306L16.3244 3.125H14.7083Z"/>
<path d="M10.3333 5C10.6785 5 10.9583 5.27982 10.9583 5.625V6.25H12.2083C12.5535 6.25 12.8333 6.52982 12.8333 6.875C12.8333 7.22018 12.5535 7.5 12.2083 7.5H9.39583C9.14719 7.5 8.90873 7.59877 8.73292 7.77459C8.5571 7.9504 8.45833 8.18886 8.45833 8.4375C8.45833 8.68614 8.5571 8.9246 8.73292 9.10041C8.90873 9.27623 9.14719 9.375 9.39583 9.375H11.2708C11.851 9.375 12.4074 9.60547 12.8176 10.0157C13.2279 10.4259 13.4583 10.9823 13.4583 11.5625C13.4583 12.1427 13.2279 12.6991 12.8176 13.1093C12.4074 13.5195 11.851 13.75 11.2708 13.75H10.9583V14.375C10.9583 14.7202 10.6785 15 10.3333 15C9.98815 15 9.70833 14.7202 9.70833 14.375V13.75H8.45833C8.11315 13.75 7.83333 13.4702 7.83333 13.125C7.83333 12.7798 8.11315 12.5 8.45833 12.5H11.2708C11.5195 12.5 11.7579 12.4012 11.9337 12.2254C12.1096 12.0496 12.2083 11.8111 12.2083 11.5625C12.2083 11.3139 12.1096 11.0754 11.9337 10.8996C11.7579 10.7238 11.5195 10.625 11.2708 10.625H9.39583C8.81567 10.625 8.25927 10.3945 7.84903 9.9843C7.4388 9.57406 7.20833 9.01766 7.20833 8.4375C7.20833 7.85734 7.4388 7.30094 7.84903 6.8907C8.25927 6.48047 8.81567 6.25 9.39583 6.25H9.70833V5.625C9.70833 5.27982 9.98815 5 10.3333 5Z"/>
</symbol>

<symbol id="DotsThreeVertical" viewBox="0 0 19 18">
<path d="M9.33333 9.84375C9.79932 9.84375 10.1771 9.46599 10.1771 9C10.1771 8.53401 9.79932 8.15625 9.33333 8.15625C8.86734 8.15625 8.48958 8.53401 8.48958 9C8.48958 9.46599 8.86734 9.84375 9.33333 9.84375Z"/>
<path d="M9.33333 5.34375C9.79932 5.34375 10.1771 4.96599 10.1771 4.5C10.1771 4.03401 9.79932 3.65625 9.33333 3.65625C8.86734 3.65625 8.48958 4.03401 8.48958 4.5C8.48958 4.96599 8.86734 5.34375 9.33333 5.34375Z"/>
<path d="M9.33333 14.3438C9.79932 14.3438 10.1771 13.966 10.1771 13.5C10.1771 13.034 9.79932 12.6562 9.33333 12.6562C8.86734 12.6562 8.48958 13.034 8.48958 13.5C8.48958 13.966 8.86734 14.3438 9.33333 14.3438Z"/>
</symbol>

<symbol id="Wallet" viewBox="0 0 21 20">
<path fill-rule="evenodd" clip-rule="evenodd" d="M5.04169 4.375C4.87593 4.375 4.71696 4.44085 4.59975 4.55806C4.48253 4.67527 4.41669 4.83424 4.41669 5C4.41669 5.16576 4.48253 5.32473 4.59975 5.44194C4.71696 5.55915 4.87593 5.625 5.04169 5.625H17.5417C17.8732 5.625 18.1911 5.7567 18.4256 5.99112C18.66 6.22554 18.7917 6.54348 18.7917 6.875V15.625C18.7917 15.9565 18.66 16.2745 18.4256 16.5089C18.1911 16.7433 17.8732 16.875 17.5417 16.875H5.04169C4.54441 16.875 4.06749 16.6775 3.71586 16.3258C3.36423 15.9742 3.16669 15.4973 3.16669 15V5C3.16669 4.50272 3.36423 4.02581 3.71586 3.67417C4.06749 3.32254 4.54441 3.125 5.04169 3.125H15.6667C16.0119 3.125 16.2917 3.40482 16.2917 3.75C16.2917 4.09518 16.0119 4.375 15.6667 4.375H5.04169ZM4.41669 6.76777V15C4.41669 15.1658 4.48253 15.3247 4.59975 15.4419C4.71696 15.5592 4.87593 15.625 5.04169 15.625H17.5417V6.875H5.04169C4.82672 6.875 4.61556 6.83809 4.41669 6.76777Z"/>
<path d="M14.7292 12.1875C15.247 12.1875 15.6667 11.7678 15.6667 11.25C15.6667 10.7322 15.247 10.3125 14.7292 10.3125C14.2114 10.3125 13.7917 10.7322 13.7917 11.25C13.7917 11.7678 14.2114 12.1875 14.7292 12.1875Z"/>
</symbol>

<symbol id="DotsThree" viewBox="0 0 22 22">
  <path d="M11 12.0312C11.5695 12.0312 12.0312 11.5695 12.0312 11C12.0312 10.4305 11.5695 9.96875 11 9.96875C10.4305 9.96875 9.96875 10.4305 9.96875 11C9.96875 11.5695 10.4305 12.0312 11 12.0312Z" />
  <path d="M16.5 12.0312C17.0695 12.0312 17.5312 11.5695 17.5312 11C17.5312 10.4305 17.0695 9.96875 16.5 9.96875C15.9305 9.96875 15.4688 10.4305 15.4688 11C15.4688 11.5695 15.9305 12.0312 16.5 12.0312Z" />
  <path d="M5.5 12.0312C6.06954 12.0312 6.53125 11.5695 6.53125 11C6.53125 10.4305 6.06954 9.96875 5.5 9.96875C4.93046 9.96875 4.46875 10.4305 4.46875 11C4.46875 11.5695 4.93046 12.0312 5.5 12.0312Z" />
</symbol>

<symbol id="Warning" viewBox="0 0 16 16">
  <path fill-rule="evenodd" clip-rule="evenodd" d="M8 6C8.27614 6 8.5 6.22386 8.5 6.5V9C8.5 9.27614 8.27614 9.5 8 9.5C7.72386 9.5 7.5 9.27614 7.5 9V6.5C7.5 6.22386 7.72386 6 8 6Z" />
  <path fill-rule="evenodd" clip-rule="evenodd" d="M7.25065 1.70139C7.47831 1.56937 7.73681 1.49984 7.99999 1.49984C8.26316 1.49984 8.52166 1.56937 8.74933 1.70139C8.9766 1.83319 9.16509 2.02259 9.29578 2.25049C9.29601 2.25088 9.29623 2.25126 9.29645 2.25165L14.7955 11.75C14.9269 11.9776 14.9962 12.2358 14.9965 12.4987C14.9967 12.7615 14.9279 13.0198 14.7968 13.2477C14.6658 13.4756 14.4772 13.665 14.2499 13.7971C14.0226 13.9291 13.7646 13.9991 13.5017 14L13.5 14H2.49999L2.49823 14C2.23537 13.9991 1.97737 13.9291 1.75008 13.7971C1.52278 13.665 1.33418 13.4756 1.20315 13.2477C1.07212 13.0198 1.00328 12.7615 1.00351 12.4987C1.00374 12.2358 1.07305 11.9776 1.20448 11.75L6.70353 2.25165C6.70375 2.25126 6.70397 2.25088 6.70419 2.25049C6.83488 2.02259 7.02337 1.83319 7.25065 1.70139ZM7.13749 2.5L7.5702 2.75052L2.0705 12.25C2.07046 12.2501 2.07054 12.2499 2.0705 12.25C2.02676 12.3258 2.00359 12.412 2.00351 12.4996C2.00343 12.5872 2.02638 12.6733 2.07006 12.7492C2.11373 12.8252 2.1766 12.8883 2.25237 12.9324C2.32793 12.9763 2.41368 12.9996 2.50107 13H13.4989C13.5863 12.9996 13.672 12.9763 13.7476 12.9324C13.8234 12.8883 13.8862 12.8252 13.9299 12.7492C13.9736 12.6733 13.9965 12.5872 13.9965 12.4996C13.9964 12.4121 13.9733 12.3261 13.9296 12.2503C13.9296 12.2502 13.9297 12.2504 13.9296 12.2503L8.42852 2.74835C8.38531 2.67285 8.32293 2.6101 8.24768 2.56646C8.17242 2.52282 8.08698 2.49984 7.99999 2.49984C7.913 2.49984 7.82755 2.52282 7.7523 2.56646C7.67705 2.6101 7.61466 2.67285 7.57145 2.74835L7.13749 2.5Z" />
  <path d="M8 12C8.41421 12 8.75 11.6642 8.75 11.25C8.75 10.8358 8.41421 10.5 8 10.5C7.58579 10.5 7.25 10.8358 7.25 11.25C7.25 11.6642 7.58579 12 8 12Z" />
</symbol>

<symbol id="Airplane" viewBox="0 0 16 16">
  <path fill-rule="evenodd" clip-rule="evenodd" d="M11.3653 3.21881C11.3567 3.22945 11.3477 3.23983 11.3382 3.2499L9.35693 5.34365C9.21997 5.48839 9.01015 5.53799 8.82288 5.46989L3.62214 3.57871L2.77857 4.42228L6.7711 7.08397C6.89574 7.16706 6.97656 7.30166 6.99132 7.45072C7.00608 7.59979 6.95323 7.74762 6.84731 7.85355L5.34731 9.35355C5.25354 9.44731 5.12636 9.49999 4.99375 9.49999H3.70086L2.91708 10.2838L4.76607 10.9075C4.91376 10.9573 5.02977 11.0731 5.0798 11.2208L5.70907 13.0776L6.49375 12.2929V11C6.49375 10.8591 6.55318 10.7248 6.65742 10.63L8.16992 9.25502C8.27696 9.15771 8.42091 9.11153 8.56458 9.12841C8.70826 9.14528 8.83759 9.22356 8.91917 9.34303L11.5666 13.22L12.415 12.3716L10.5239 7.17086C10.4556 6.98307 10.5056 6.77266 10.6512 6.63577L12.7288 4.68181C12.9005 4.49676 12.9964 4.25332 12.9964 3.99999C12.9964 3.73409 12.8907 3.47907 12.7027 3.29105C12.5147 3.10302 12.2597 2.99739 11.9938 2.99739C11.7641 2.99739 11.5426 3.07619 11.3653 3.21881ZM13.4832 5.33868C13.8127 4.97203 13.9964 4.49548 13.9964 3.99999C13.9964 3.46887 13.7854 2.9595 13.4098 2.58394C13.0342 2.20838 12.5249 1.99739 11.9938 1.99739C11.4626 1.99739 10.9533 2.20838 10.5777 2.58394C10.5498 2.61184 10.5258 2.64229 10.5059 2.67455L8.85617 4.41793L3.66463 2.5301C3.48206 2.46371 3.27756 2.50908 3.1402 2.64644L1.6402 4.14644C1.53428 4.25236 1.48143 4.40019 1.49619 4.54926C1.51095 4.69833 1.59177 4.83293 1.7164 4.91602L5.70893 7.5777L4.78665 8.49999H3.49375C3.36115 8.49999 3.23397 8.55267 3.1402 8.64644L1.6402 10.1464C1.51789 10.2687 1.46749 10.4456 1.50692 10.614C1.54636 10.7824 1.67004 10.9185 1.83394 10.9738L4.21209 11.776L5.02021 14.1605C5.07569 14.3242 5.21178 14.4476 5.3801 14.4869C5.54841 14.5262 5.72509 14.4758 5.84731 14.3535L7.34731 12.8535C7.44108 12.7598 7.49375 12.6326 7.49375 12.5V11.2212L8.41739 10.3815L11.0808 14.282C11.1648 14.4049 11.2991 14.484 11.4473 14.4978C11.5954 14.5117 11.7421 14.4588 11.8473 14.3535L13.3473 12.8535C13.4847 12.7162 13.53 12.5117 13.4636 12.3291L11.5762 7.13861L13.3679 5.45351C13.3824 5.44194 13.3964 5.42945 13.4098 5.41605C13.4101 5.41578 13.4103 5.4155 13.4106 5.41523L13.4473 5.37855C13.4601 5.36576 13.4721 5.35244 13.4832 5.33868Z" />
</symbol>

<symbol id="House" viewBox="0 0 16 16">
  <path fill-rule="evenodd" clip-rule="evenodd" d="M7.32573 1.93668C7.50998 1.76845 7.75048 1.67517 8 1.67517C8.24952 1.67517 8.49001 1.76845 8.67426 1.93668C8.67451 1.93691 8.67476 1.93713 8.675 1.93735L13.6738 6.47998L13.6808 6.4865C13.7796 6.57982 13.8588 6.69197 13.9136 6.81633C13.9684 6.9407 13.9977 7.07478 13.9999 7.21067L14 7.21876V13.5C14 13.7762 13.7761 14 13.5 14C13.2239 14 13 13.7762 13 13.5V7.22556C12.9998 7.2235 12.9993 7.22149 12.9985 7.21959C12.9977 7.21777 12.9966 7.21609 12.9953 7.21462L8.00123 2.67629L8 2.67517L7.99877 2.67629L3.00474 7.21462C3.00341 7.21609 3.00233 7.21777 3.00152 7.21959C3.00069 7.22149 3.00018 7.2235 3 7.22556V13.5C3 13.7762 2.77614 14 2.5 14C2.22386 14 2 13.7762 2 13.5V7.21876L2.00007 7.21067C2.00226 7.07478 2.03163 6.9407 2.08644 6.81633C2.14124 6.69197 2.22038 6.57982 2.31919 6.4865L2.32623 6.47998L7.325 1.93735C7.32524 1.93713 7.32549 1.93691 7.32573 1.93668Z"/>
  <path fill-rule="evenodd" clip-rule="evenodd" d="M0.5 13.5C0.5 13.2239 0.723858 13 1 13H15C15.2761 13 15.5 13.2239 15.5 13.5C15.5 13.7761 15.2761 14 15 14H1C0.723858 14 0.5 13.7761 0.5 13.5Z" />
  <path fill-rule="evenodd" clip-rule="evenodd" d="M6.29289 9.29289C6.48043 9.10536 6.73478 9 7 9H9C9.26522 9 9.51957 9.10536 9.70711 9.29289C9.89464 9.48043 10 9.73478 10 10V13.5C10 13.7761 9.77614 14 9.5 14C9.22386 14 9 13.7761 9 13.5V10L7 10L7 13.5C7 13.7761 6.77614 14 6.5 14C6.22386 14 6 13.7761 6 13.5V10C6 9.73478 6.10536 9.48043 6.29289 9.29289Z" />
</symbol>

<symbol id="Union" viewBox="0 0 15 24">
<path d="M10.9104 23.6127C13.3845 20.2361 14.7148 16.1683 14.7097 11.9945C14.7046 7.82072 13.3644 3.75612 10.882 0.38542C10.5734 -0.0335289 9.9808 -0.125142 9.55828 0.180797C9.13577 0.486736 9.04337 1.07437 9.35192 1.49332C11.5979 4.543 12.8104 8.2205 12.8151 11.9968C12.8197 15.773 11.6161 19.4534 9.3776 22.5085C9.07009 22.9282 9.16392 23.5156 9.58718 23.8205C10.0104 24.1255 10.6029 24.0324 10.9104 23.6127Z" />
<path d="M10.9204 11.9991C10.9246 15.3779 9.84774 18.6709 7.84484 21.4044C7.53732 21.824 6.9449 21.9171 6.52164 21.6122C6.09838 21.3072 6.00455 20.7198 6.31207 20.3001C8.07933 17.8882 9.02949 14.9827 9.02584 12.0014C9.0222 9.02012 8.06494 6.11684 6.29179 3.7092C5.98324 3.29025 6.07563 2.70261 6.49815 2.39667C6.92067 2.09073 7.51331 2.18234 7.82185 2.60129C9.83143 5.32995 10.9163 8.62034 10.9204 11.9991Z" />
<path d="M7.13125 12.0185C7.13125 9.43975 6.30794 6.92724 4.77931 4.84102C4.47179 4.42133 3.87938 4.32829 3.45612 4.63321C3.03285 4.93814 2.93902 5.52555 3.24654 5.94524C4.53999 7.7105 5.23664 9.83647 5.23664 12.0185C5.23663 14.2004 4.53998 16.3264 3.24653 18.0917C2.93901 18.5114 3.03284 19.0988 3.4561 19.4037C3.87936 19.7086 4.47178 19.6156 4.7793 19.1959C6.30793 17.1097 7.13124 14.5972 7.13125 12.0185Z" />
<path d="M3.34203 12.0184C3.34203 10.2331 2.77205 8.49371 1.71377 7.0494C1.40625 6.62971 0.813833 6.53667 0.39057 6.8416C-0.0326929 7.14652 -0.126523 7.73393 0.180994 8.15362C1.0041 9.27697 1.44742 10.6299 1.44742 12.0184C1.44742 13.4069 1.00409 14.7598 0.180986 15.8832C-0.126532 16.3029 -0.032703 16.8903 0.39056 17.1952C0.813822 17.5001 1.40624 17.4071 1.71376 16.9874C2.77204 15.5431 3.34203 13.8037 3.34203 12.0184Z" />
</symbol>

<symbol id="Symbol" viewBox="0 0 59 57">
<g opacity="0.16">
<path fill-rule="evenodd" clip-rule="evenodd" d="M9.68685 27.6868C4.01882 29.8839 0 35.3893 0 41.8333C0 50.2096 6.79035 57 15.1667 57C21.6107 57 27.1161 52.9812 29.3132 47.3131L9.68685 27.6868Z" />
<path fill-rule="evenodd" clip-rule="evenodd" d="M44.3535 27.6869C38.6855 29.884 34.6667 35.3893 34.6667 41.8333C34.6667 50.2097 41.457 57 49.8334 57C56.2774 57 61.7827 52.9812 63.9798 47.3132L44.3535 27.6869Z" />
<path fill-rule="evenodd" clip-rule="evenodd" d="M44.3535 -8C38.6855 -5.8029 34.6667 -0.29753 34.6667 6.14649C34.6667 14.5228 41.457 21.3132 49.8334 21.3132C56.2774 21.3132 61.7827 17.2943 63.9798 11.6263L44.3535 -8Z" />
<path fill-rule="evenodd" clip-rule="evenodd" d="M9.68685 -6.97983C4.01882 -4.78273 0 0.722642 0 7.16666C0 15.543 6.79035 22.3333 15.1667 22.3333C21.6107 22.3333 27.1161 18.3145 29.3132 12.6465L9.68685 -6.97983Z" />
</g>
</symbol>

<symbol id="Sort" viewBox="0 0 12 12">
  <path fill-rule="evenodd" clip-rule="evenodd" d="M3.85983 6.85983C4.00628 6.71339 4.24372 6.71339 4.39017 6.85983L6 8.46967L7.60984 6.85983C7.75628 6.71339 7.99372 6.71339 8.14016 6.85983C8.28661 7.00628 8.28661 7.24372 8.14016 7.39017L6.26516 9.26516C6.11872 9.41161 5.88128 9.41161 5.73484 9.26516L3.85983 7.39017C3.71339 7.24372 3.71339 7.00628 3.85983 6.85983Z" />
  <path fill-rule="evenodd" clip-rule="evenodd" d="M3.85983 5.14017C4.00628 5.28661 4.24372 5.28661 4.39017 5.14017L6 3.53033L7.60984 5.14017C7.75628 5.28661 7.99372 5.28661 8.14016 5.14017C8.28661 4.99372 8.28661 4.75628 8.14016 4.60983L6.26516 2.73484C6.11872 2.58839 5.88128 2.58839 5.73484 2.73484L3.85983 4.60983C3.71339 4.75628 3.71339 4.99372 3.85983 5.14017Z" />
</symbol>

<symbol id="FirstAid" viewBox="0 0 16 16" >
  <path d="M13.5 5.5H10.5V2.5C10.5 2.23478 10.3946 1.98043 10.2071 1.79289C10.0196 1.60536 9.76522 1.5 9.5 1.5H6.5C6.23478 1.5 5.98043 1.60536 5.79289 1.79289C5.60536 1.98043 5.5 2.23478 5.5 2.5V5.5H2.5C2.23478 5.5 1.98043 5.60536 1.79289 5.79289C1.60536 5.98043 1.5 6.23478 1.5 6.5V9.5C1.5 9.76522 1.60536 10.0196 1.79289 10.2071C1.98043 10.3946 2.23478 10.5 2.5 10.5H5.5V13.5C5.5 13.7652 5.60536 14.0196 5.79289 14.2071C5.98043 14.3946 6.23478 14.5 6.5 14.5H9.5C9.76522 14.5 10.0196 14.3946 10.2071 14.2071C10.3946 14.0196 10.5 13.7652 10.5 13.5V10.5H13.5C13.7652 10.5 14.0196 10.3946 14.2071 10.2071C14.3946 10.0196 14.5 9.76522 14.5 9.5V6.5C14.5 6.23478 14.3946 5.98043 14.2071 5.79289C14.0196 5.60536 13.7652 5.5 13.5 5.5ZM13.5 9.5H10C9.86739 9.5 9.74021 9.55268 9.64645 9.64645C9.55268 9.74021 9.5 9.86739 9.5 10V13.5H6.5V10C6.5 9.86739 6.44732 9.74021 6.35355 9.64645C6.25979 9.55268 6.13261 9.5 6 9.5H2.5V6.5H6C6.13261 6.5 6.25979 6.44732 6.35355 6.35355C6.44732 6.25979 6.5 6.13261 6.5 6V2.5H9.5V6C9.5 6.13261 9.55268 6.25979 9.64645 6.35355C9.74021 6.44732 9.86739 6.5 10 6.5H13.5V9.5Z" />
</symbol>

<symbol id="Cart" viewBox="0 0 16 16" >
  <path d="M14.3837 3.67937C14.3368 3.62321 14.2781 3.57804 14.2118 3.54704C14.1455 3.51605 14.0732 3.49999 14 3.5H3.9175L3.5375 1.41062C3.51657 1.29542 3.45587 1.19121 3.36598 1.11617C3.27609 1.04113 3.16272 1.00002 3.04562 1H1.5C1.36739 1 1.24021 1.05268 1.14645 1.14645C1.05268 1.24021 1 1.36739 1 1.5C1 1.63261 1.05268 1.75979 1.14645 1.85355C1.24021 1.94732 1.36739 2 1.5 2H2.625L4.2225 10.7681C4.26956 11.0282 4.38448 11.2712 4.55562 11.4725C4.3194 11.6931 4.14891 11.9749 4.06304 12.2865C3.97717 12.5981 3.97928 12.9274 4.06914 13.2379C4.15901 13.5484 4.33311 13.828 4.57214 14.0455C4.81117 14.2631 5.1058 14.4103 5.42335 14.4706C5.7409 14.531 6.06896 14.5022 6.37116 14.3875C6.67335 14.2728 6.93788 14.0767 7.1354 13.8208C7.33292 13.5649 7.45572 13.2594 7.49018 12.938C7.52464 12.6166 7.46941 12.2919 7.33063 12H10.1694C10.0575 12.2342 9.99963 12.4905 10 12.75C10 13.0961 10.1026 13.4345 10.2949 13.7222C10.4872 14.01 10.7605 14.2343 11.0803 14.3668C11.4001 14.4992 11.7519 14.5339 12.0914 14.4664C12.4309 14.3989 12.7427 14.2322 12.9874 13.9874C13.2322 13.7427 13.3989 13.4309 13.4664 13.0914C13.5339 12.7519 13.4992 12.4001 13.3668 12.0803C13.2343 11.7605 13.01 11.4872 12.7222 11.2949C12.4345 11.1026 12.0961 11 11.75 11H5.69812C5.58103 11 5.46766 10.9589 5.37777 10.8838C5.28788 10.8088 5.22718 10.7046 5.20625 10.5894L5.00812 9.5H12.2581C12.6094 9.49995 12.9495 9.37661 13.2192 9.15149C13.4889 8.92637 13.671 8.61375 13.7338 8.26812L14.4937 4.08938C14.5066 4.01715 14.5034 3.94298 14.4844 3.87212C14.4654 3.80127 14.431 3.73546 14.3837 3.67937ZM6.5 12.75C6.5 12.8983 6.45601 13.0433 6.3736 13.1667C6.29119 13.29 6.17406 13.3861 6.03701 13.4429C5.89997 13.4997 5.74917 13.5145 5.60368 13.4856C5.4582 13.4567 5.32456 13.3852 5.21967 13.2803C5.11478 13.1754 5.04335 13.0418 5.01441 12.8963C4.98547 12.7508 5.00032 12.6 5.05709 12.463C5.11386 12.3259 5.20999 12.2088 5.33332 12.1264C5.45666 12.044 5.60166 12 5.75 12C5.94891 12 6.13968 12.079 6.28033 12.2197C6.42098 12.3603 6.5 12.5511 6.5 12.75ZM12.5 12.75C12.5 12.8983 12.456 13.0433 12.3736 13.1667C12.2912 13.29 12.1741 13.3861 12.037 13.4429C11.9 13.4997 11.7492 13.5145 11.6037 13.4856C11.4582 13.4567 11.3246 13.3852 11.2197 13.2803C11.1148 13.1754 11.0433 13.0418 11.0144 12.8963C10.9855 12.7508 11.0003 12.6 11.0571 12.463C11.1139 12.3259 11.21 12.2088 11.3333 12.1264C11.4567 12.044 11.6017 12 11.75 12C11.9489 12 12.1397 12.079 12.2803 12.2197C12.421 12.3603 12.5 12.5511 12.5 12.75ZM12.75 8.08937C12.729 8.2049 12.668 8.30935 12.5778 8.38443C12.4875 8.45951 12.3737 8.50042 12.2563 8.5H4.82625L4.09937 4.5H13.4006L12.75 8.08937Z" />
</symbol>

<symbol id="Monitor" viewBox="0 0 16 16" >
  <path fill-rule="evenodd" clip-rule="evenodd" d="M4.64645 1.14645C4.84171 0.951184 5.15829 0.951184 5.35355 1.14645L8 3.79289L10.6464 1.14645C10.8417 0.951184 11.1583 0.951184 11.3536 1.14645C11.5488 1.34171 11.5488 1.65829 11.3536 1.85355L8.35355 4.85355C8.15829 5.04882 7.84171 5.04882 7.64645 4.85355L4.64645 1.85355C4.45118 1.65829 4.45118 1.34171 4.64645 1.14645Z" />
  <path fill-rule="evenodd" clip-rule="evenodd" d="M13 13C13.2761 13 13.5 12.7761 13.5 12.5V5.5C13.5 5.22386 13.2761 5 13 5H3C2.72386 5 2.5 5.22386 2.5 5.5V12.5C2.5 12.7761 2.72386 13 3 13H5.5C5.77614 13 6 13.2239 6 13.5C6 13.7761 5.77614 14 5.5 14H3C2.17157 14 1.5 13.3284 1.5 12.5V5.5C1.5 4.67157 2.17157 4 3 4H13C13.8284 4 14.5 4.67157 14.5 5.5V12.5C14.5 13.3284 13.8284 14 13 14H10.5C10.2239 14 10 13.7761 10 13.5C10 13.2239 10.2239 13 10.5 13H13Z" />
  <path d="M8.70711 12.2929C9.09763 12.6834 9.09763 13.3166 8.70711 13.7071C8.31658 14.0976 7.68342 14.0976 7.29289 13.7071C6.90237 13.3166 6.90237 12.6834 7.29289 12.2929C7.68342 11.9024 8.31658 11.9024 8.70711 12.2929Z" />
  <path fill-rule="evenodd" clip-rule="evenodd" d="M5.87868 11.5858C5.68342 11.3905 5.68342 11.0739 5.87868 10.8787C6.15726 10.6001 6.48797 10.3791 6.85195 10.2284C7.21593 10.0776 7.60603 10 8 10C8.39397 10 8.78407 10.0776 9.14805 10.2284C9.51203 10.3791 9.84274 10.6001 10.1213 10.8787C10.3166 11.0739 10.3166 11.3905 10.1213 11.5858C9.92606 11.781 9.60948 11.781 9.41421 11.5858C9.2285 11.4001 9.00802 11.2528 8.76537 11.1522C8.52272 11.0517 8.26264 11 8 11C7.73736 11 7.47728 11.0517 7.23463 11.1522C6.99198 11.2528 6.7715 11.4001 6.58579 11.5858C6.39052 11.781 6.07394 11.781 5.87868 11.5858Z" />
  <path fill-rule="evenodd" clip-rule="evenodd" d="M4.46447 10.1716C4.2692 9.97631 4.2692 9.65973 4.46447 9.46447C4.92876 9.00017 5.47996 8.63188 6.08658 8.3806C6.69321 8.12933 7.34339 8 8 8C8.65661 8 9.30679 8.12933 9.91342 8.3806C10.52 8.63188 11.0712 9.00017 11.5355 9.46447C11.7308 9.65973 11.7308 9.97631 11.5355 10.1716C11.3403 10.3668 11.0237 10.3668 10.8284 10.1716C10.457 9.80014 10.016 9.5055 9.53073 9.30448C9.04543 9.10346 8.52529 9 8 9C7.47471 9 6.95457 9.10346 6.46927 9.30448C5.98396 9.5055 5.54301 9.80014 5.17157 10.1716C4.97631 10.3668 4.65973 10.3668 4.46447 10.1716Z" />
</symbol>

<symbol id="Umbrella" viewBox="0 0 16 16" >
  <path d="M14.9996 7.91437C14.8854 6.60556 14.4067 5.35496 13.6177 4.30449C12.8287 3.25403 11.761 2.44577 10.5358 1.97145C9.31064 1.49714 7.97704 1.37575 6.68637 1.62108C5.3957 1.86641 4.19965 2.46862 3.23395 3.35937C1.94473 4.54375 1.14823 6.16977 1.0027 7.91437C0.99083 8.05245 1.00779 8.19149 1.05251 8.32266C1.09722 8.45383 1.16872 8.57428 1.26245 8.67636C1.35618 8.77844 1.47011 8.85992 1.597 8.91563C1.7239 8.97134 1.86099 9.00007 1.99957 9H7.49957V12.5C7.49957 13.0304 7.71029 13.5391 8.08536 13.9142C8.46043 14.2893 8.96914 14.5 9.49957 14.5C10.03 14.5 10.5387 14.2893 10.9138 13.9142C11.2889 13.5391 11.4996 13.0304 11.4996 12.5C11.4996 12.3674 11.4469 12.2402 11.3531 12.1464C11.2594 12.0527 11.1322 12 10.9996 12C10.867 12 10.7398 12.0527 10.646 12.1464C10.5523 12.2402 10.4996 12.3674 10.4996 12.5C10.4996 12.7652 10.3942 13.0196 10.2067 13.2071C10.0191 13.3946 9.76479 13.5 9.49957 13.5C9.23436 13.5 8.98 13.3946 8.79247 13.2071C8.60493 13.0196 8.49957 12.7652 8.49957 12.5V9H13.9996C14.1384 9.00051 14.2759 8.9721 14.4031 8.91658C14.5304 8.86105 14.6447 8.77964 14.7388 8.67751C14.8328 8.57539 14.9046 8.45479 14.9495 8.3234C14.9944 8.19201 15.0115 8.05271 14.9996 7.91437ZM1.99957 8C2.11039 6.71199 2.63361 5.49405 3.49156 4.527C4.3495 3.55995 5.49643 2.89535 6.76207 2.63187C6.02957 3.625 5.1152 5.38187 5.0102 8H1.99957ZM6.00895 8C6.09582 6.07687 6.66707 4.69937 7.1527 3.86C7.39215 3.44303 7.6761 3.05325 7.99957 2.6975C8.32244 3.05331 8.60577 3.44309 8.84457 3.86C9.67457 5.29375 9.93707 6.83 9.98832 8H6.00895ZM10.9871 8C10.8821 5.38187 9.9677 3.625 9.23707 2.62875C10.5035 2.89164 11.6513 3.55648 12.5094 4.52429C13.3675 5.49211 13.8902 6.71117 13.9996 8H10.9871Z" />
</symbol>

<symbol id="CopySimple" viewBox="0 0 12 12">
<path d="M8.625 3H1.875C1.77554 3 1.68016 3.03951 1.60984 3.10984C1.53951 3.18016 1.5 3.27554 1.5 3.375V10.125C1.5 10.2245 1.53951 10.3198 1.60984 10.3902C1.68016 10.4605 1.77554 10.5 1.875 10.5H8.625C8.72446 10.5 8.81984 10.4605 8.89017 10.3902C8.96049 10.3198 9 10.2245 9 10.125V3.375C9 3.27554 8.96049 3.18016 8.89017 3.10984C8.81984 3.03951 8.72446 3 8.625 3ZM8.25 9.75H2.25V3.75H8.25V9.75ZM10.5 1.875V8.625C10.5 8.72446 10.4605 8.81984 10.3902 8.89017C10.3198 8.96049 10.2245 9 10.125 9C10.0255 9 9.93016 8.96049 9.85983 8.89017C9.78951 8.81984 9.75 8.72446 9.75 8.625V2.25H3.375C3.27554 2.25 3.18016 2.21049 3.10984 2.14016C3.03951 2.06984 3 1.97446 3 1.875C3 1.77554 3.03951 1.68016 3.10984 1.60984C3.18016 1.53951 3.27554 1.5 3.375 1.5H10.125C10.2245 1.5 10.3198 1.53951 10.3902 1.60984C10.4605 1.68016 10.5 1.77554 10.5 1.875Z" />
</symbol>

<symbol id="Visa" viewBox="0 0 25 16" fill="none" >
  <rect x="1" y="0.5" width="23" height="15" rx="2.5" stroke="#E5E6E6"/>
<path d="M5.01085 10.7945L4.36578 7.89991L4.04324 6.45263L3.7207 5.00535H4.93228L5.92884 9.47538L8.18245 5.00535H9.3899L6.4788 10.7945H5.01085Z" fill="#1E4841"/>
<path d="M9.11879 10.7945L9.92927 5.00535H11.0705L10.2601 10.7945H9.11879Z" fill="#1E4841"/>
<path d="M13.1347 10.902C12.8094 10.902 12.5048 10.851 12.2208 10.749C11.9396 10.647 11.7025 10.4995 11.5096 10.3065C11.3166 10.1136 11.1898 9.88475 11.1291 9.6201L12.258 9.22314C12.2773 9.31686 12.3325 9.40508 12.4234 9.48778C12.5172 9.56773 12.6385 9.63389 12.7873 9.68626C12.9389 9.73589 13.1071 9.7607 13.2918 9.7607C13.471 9.7607 13.6433 9.73451 13.8087 9.68213C13.9768 9.62699 14.1174 9.55118 14.2305 9.4547C14.3435 9.35821 14.4083 9.24519 14.4248 9.11562C14.4441 8.98606 14.4083 8.87855 14.3173 8.79309C14.2263 8.70763 14.1037 8.64009 13.9493 8.59047C13.7977 8.53809 13.6391 8.49812 13.4737 8.47055C13.0685 8.4099 12.7101 8.31204 12.3986 8.17696C12.0899 8.03912 11.8569 7.85029 11.6998 7.61045C11.5427 7.36786 11.4903 7.06049 11.5427 6.68833C11.595 6.32996 11.7411 6.01707 11.981 5.74967C12.2208 5.48227 12.5172 5.27413 12.87 5.12527C13.2229 4.97641 13.5923 4.90198 13.9782 4.90198C14.298 4.90198 14.5985 4.95298 14.8797 5.05498C15.1636 5.15697 15.4034 5.30446 15.5992 5.49743C15.7977 5.6904 15.9258 5.92196 15.9837 6.19212L14.8507 6.58082C14.8314 6.48709 14.7749 6.40025 14.6812 6.32031C14.5902 6.24036 14.4689 6.17558 14.3173 6.12596C14.1684 6.07634 14.0017 6.05153 13.817 6.05153C13.6405 6.04877 13.4682 6.07496 13.3001 6.1301C13.1347 6.18523 12.9954 6.26104 12.8824 6.35753C12.7694 6.45401 12.7032 6.56428 12.6839 6.68833C12.6619 6.85098 12.6922 6.97365 12.7749 7.05635C12.8576 7.13906 12.9748 7.19832 13.1264 7.23416C13.2808 7.27 13.4503 7.3017 13.635 7.32927C14.0182 7.38716 14.3655 7.49054 14.677 7.6394C14.9886 7.78551 15.227 7.98123 15.3924 8.22658C15.5578 8.46917 15.6157 8.76552 15.5661 9.11562C15.5192 9.474 15.3759 9.78688 15.136 10.0543C14.8962 10.3217 14.5999 10.5298 14.247 10.6787C13.8941 10.8275 13.5234 10.902 13.1347 10.902Z" fill="#1E4841"/>
<path d="M18.2506 5.00535H19.549L20.8392 10.7945H19.6276L19.4126 9.83513H17.0349L16.5511 10.7945H15.3395L18.2506 5.00535ZM17.6097 8.69385H19.1562L18.6765 6.57255L17.6097 8.69385Z" fill="#1E4841"/>
</symbol>

<symbol id="MC" viewBox="0 0 25 16" fill="none" >
  <rect x="1" y="0.5" width="23" height="15" rx="2.5" stroke="#E5E6E6"/>
  <circle opacity="0.8" cx="15.5" cy="8" r="5" fill="#BBF49C"/>
  <circle cx="9.5" cy="8" r="5" fill="#415C58"/>
  <path opacity="0.8" d="M12.5 12.0004C13.7144 11.0882 14.5 9.63582 14.5 8C14.5 6.36418 13.7144 4.91184 12.5 3.99963C11.2856 4.91184 10.5 6.36418 10.5 8C10.5 9.63582 11.2856 11.0882 12.5 12.0004Z" fill="#1E4841"/>
</symbol>

<symbol id="Lightning" viewBox="0 0 16 16" >
  <path d="M13.4869 7.38562C13.468 7.30549 13.4295 7.23126 13.375 7.16955C13.3205 7.10784 13.2516 7.06055 13.1744 7.03187L9.57377 5.68125L10.49 1.09812C10.5108 0.991636 10.4963 0.88129 10.4489 0.783736C10.4014 0.686183 10.3235 0.606715 10.2269 0.557324C10.1303 0.507933 10.0202 0.4913 9.91337 0.509933C9.80649 0.528567 9.70858 0.581458 9.6344 0.660623L2.6344 8.16062C2.57754 8.22053 2.53641 8.29359 2.51469 8.37327C2.49296 8.45295 2.4913 8.53677 2.50987 8.61724C2.52845 8.69772 2.56666 8.77234 2.62111 8.83444C2.67556 8.89654 2.74454 8.94419 2.8219 8.97312L6.42377 10.3237L5.51002 14.9019C5.48927 15.0084 5.50372 15.1187 5.55119 15.2163C5.59866 15.3138 5.67657 15.3933 5.77316 15.4427C5.86976 15.4921 5.97979 15.5087 6.08667 15.4901C6.19355 15.4714 6.29146 15.4185 6.36565 15.3394L13.3656 7.83937C13.4215 7.77945 13.4617 7.70674 13.4829 7.62762C13.504 7.5485 13.5054 7.4654 13.4869 7.38562ZM6.83565 13.375L7.49002 10.1012C7.51344 9.98514 7.49488 9.86449 7.43765 9.76079C7.38042 9.65709 7.28824 9.57708 7.17752 9.535L3.87502 8.29437L9.16377 2.62812L8.51002 5.90187C8.4866 6.01798 8.50516 6.13863 8.56239 6.24233C8.61962 6.34603 8.7118 6.42604 8.82252 6.46812L12.1225 7.70562L6.83565 13.375Z" />
</symbol>

<symbol id="Ticket" viewBox="0 0 32 32" >
  <path d="M29 13C29.2652 13 29.5196 12.8946 29.7071 12.7071C29.8946 12.5196 30 12.2652 30 12V8C30 7.46957 29.7893 6.96086 29.4142 6.58579C29.0391 6.21071 28.5304 6 28 6H4C3.46957 6 2.96086 6.21071 2.58579 6.58579C2.21071 6.96086 2 7.46957 2 8V12C2 12.2652 2.10536 12.5196 2.29289 12.7071C2.48043 12.8946 2.73478 13 3 13C3.79565 13 4.55871 13.3161 5.12132 13.8787C5.68393 14.4413 6 15.2044 6 16C6 16.7956 5.68393 17.5587 5.12132 18.1213C4.55871 18.6839 3.79565 19 3 19C2.73478 19 2.48043 19.1054 2.29289 19.2929C2.10536 19.4804 2 19.7348 2 20V24C2 24.5304 2.21071 25.0391 2.58579 25.4142C2.96086 25.7893 3.46957 26 4 26H28C28.5304 26 29.0391 25.7893 29.4142 25.4142C29.7893 25.0391 30 24.5304 30 24V20C30 19.7348 29.8946 19.4804 29.7071 19.2929C29.5196 19.1054 29.2652 19 29 19C28.2044 19 27.4413 18.6839 26.8787 18.1213C26.3161 17.5587 26 16.7956 26 16C26 15.2044 26.3161 14.4413 26.8787 13.8787C27.4413 13.3161 28.2044 13 29 13ZM4 20.9C5.13029 20.6705 6.14647 20.0573 6.87638 19.1643C7.60628 18.2712 8.00501 17.1534 8.00501 16C8.00501 14.8466 7.60628 13.7288 6.87638 12.8357C6.14647 11.9427 5.13029 11.3295 4 11.1V8H11V24H4V20.9ZM28 20.9V24H13V8H28V11.1C26.8697 11.3295 25.8535 11.9427 25.1236 12.8357C24.3937 13.7288 23.995 14.8466 23.995 16C23.995 17.1534 24.3937 18.2712 25.1236 19.1643C25.8535 20.0573 26.8697 20.6705 28 20.9Z" />
</symbol>

<symbol id="ForkKnife" viewBox="0 0 32 32" >
  <path d="M9.00001 11V4.99999C9.00001 4.73477 9.10537 4.48042 9.2929 4.29288C9.48044 4.10535 9.73479 3.99999 10 3.99999C10.2652 3.99999 10.5196 4.10535 10.7071 4.29288C10.8947 4.48042 11 4.73477 11 4.99999V11C11 11.2652 10.8947 11.5196 10.7071 11.7071C10.5196 11.8946 10.2652 12 10 12C9.73479 12 9.48044 11.8946 9.2929 11.7071C9.10537 11.5196 9.00001 11.2652 9.00001 11ZM27 4.99999V28C27 28.2652 26.8947 28.5196 26.7071 28.7071C26.5196 28.8946 26.2652 29 26 29C25.7348 29 25.4804 28.8946 25.2929 28.7071C25.1054 28.5196 25 28.2652 25 28V22H19C18.7348 22 18.4804 21.8946 18.2929 21.7071C18.1054 21.5196 18 21.2652 18 21C18.0464 18.6046 18.349 16.221 18.9025 13.89C20.125 8.82874 22.4425 5.43624 25.6063 4.08124C25.7583 4.0161 25.9242 3.98971 26.0889 4.00442C26.2537 4.01913 26.4123 4.07449 26.5504 4.16554C26.6885 4.25658 26.8019 4.38047 26.8803 4.52611C26.9588 4.67174 26.9999 4.83456 27 4.99999ZM25 6.73749C20.9788 9.80874 20.1913 17.29 20.0375 20H25V6.73749ZM14.9863 4.83624C14.9667 4.70493 14.9211 4.57884 14.8523 4.46532C14.7835 4.35179 14.6927 4.25311 14.5854 4.17503C14.478 4.09694 14.3562 4.04102 14.227 4.01052C14.0977 3.98001 13.9638 3.97555 13.8328 3.99737C13.7018 4.0192 13.5766 4.06688 13.4642 4.13764C13.3519 4.2084 13.2548 4.30081 13.1785 4.4095C13.1023 4.51818 13.0485 4.64096 13.0202 4.77067C12.9919 4.90038 12.9897 5.03443 13.0138 5.16499L14 11.0787C14 12.1396 13.5786 13.157 12.8284 13.9072C12.0783 14.6573 11.0609 15.0787 10 15.0787C8.93914 15.0787 7.92173 14.6573 7.17158 13.9072C6.42144 13.157 6.00001 12.1396 6.00001 11.0787L6.98501 5.16499C7.00907 5.03443 7.00689 4.90038 6.9786 4.77067C6.95031 4.64096 6.89648 4.51818 6.82024 4.4095C6.744 4.30081 6.64688 4.2084 6.53455 4.13764C6.42222 4.06688 6.29692 4.0192 6.16597 3.99737C6.03501 3.97555 5.90103 3.98001 5.77182 4.01052C5.64261 4.04102 5.52077 4.09694 5.4134 4.17503C5.30603 4.25311 5.21529 4.35179 5.14646 4.46532C5.07763 4.57884 5.03209 4.70493 5.01251 4.83624L4.01251 10.8362C4.00395 10.8904 3.99977 10.9452 4.00001 11C4.00201 12.4173 4.50491 13.7882 5.41984 14.8706C6.33478 15.9529 7.60286 16.6771 9.00001 16.915V28C9.00001 28.2652 9.10537 28.5196 9.2929 28.7071C9.48044 28.8946 9.73479 29 10 29C10.2652 29 10.5196 28.8946 10.7071 28.7071C10.8947 28.5196 11 28.2652 11 28V16.915C12.3972 16.6771 13.6652 15.9529 14.5802 14.8706C15.4951 13.7882 15.998 12.4173 16 11C15.9998 10.9451 15.9952 10.8904 15.9863 10.8362L14.9863 4.83624Z" />
</symbol>

<symbol id="Gym" viewBox="0 0 32 32" >
  <path d="M31 15H30V11C30 10.4696 29.7893 9.96086 29.4142 9.58579C29.0391 9.21071 28.5304 9 28 9H26V8C26 7.46957 25.7893 6.96086 25.4142 6.58579C25.0391 6.21071 24.5304 6 24 6H21C20.4696 6 19.9609 6.21071 19.5858 6.58579C19.2107 6.96086 19 7.46957 19 8V15H13V8C13 7.46957 12.7893 6.96086 12.4142 6.58579C12.0391 6.21071 11.5304 6 11 6H8C7.46957 6 6.96086 6.21071 6.58579 6.58579C6.21071 6.96086 6 7.46957 6 8V9H4C3.46957 9 2.96086 9.21071 2.58579 9.58579C2.21071 9.96086 2 10.4696 2 11V15H1C0.734784 15 0.48043 15.1054 0.292893 15.2929C0.105357 15.4804 0 15.7348 0 16C0 16.2652 0.105357 16.5196 0.292893 16.7071C0.48043 16.8946 0.734784 17 1 17H2V21C2 21.5304 2.21071 22.0391 2.58579 22.4142C2.96086 22.7893 3.46957 23 4 23H6V24C6 24.5304 6.21071 25.0391 6.58579 25.4142C6.96086 25.7893 7.46957 26 8 26H11C11.5304 26 12.0391 25.7893 12.4142 25.4142C12.7893 25.0391 13 24.5304 13 24V17H19V24C19 24.5304 19.2107 25.0391 19.5858 25.4142C19.9609 25.7893 20.4696 26 21 26H24C24.5304 26 25.0391 25.7893 25.4142 25.4142C25.7893 25.0391 26 24.5304 26 24V23H28C28.5304 23 29.0391 22.7893 29.4142 22.4142C29.7893 22.0391 30 21.5304 30 21V17H31C31.2652 17 31.5196 16.8946 31.7071 16.7071C31.8946 16.5196 32 16.2652 32 16C32 15.7348 31.8946 15.4804 31.7071 15.2929C31.5196 15.1054 31.2652 15 31 15ZM4 21V11H6V21H4ZM11 24H8V8H11V24ZM24 24H21V8H24V21.9775C24 21.985 24 21.9925 24 22C24 22.0075 24 22.015 24 22.0225V24ZM28 21H26V11H28V21Z" />
</symbol>

<symbol id="Ruler" viewBox="0 0 32 32">
  <path d="M29.415 9.17125L22.8287 2.58625C22.643 2.40048 22.4225 2.25312 22.1798 2.15259C21.9371 2.05205 21.677 2.0003 21.4143 2.0003C21.1517 2.0003 20.8916 2.05205 20.6489 2.15259C20.4062 2.25312 20.1857 2.40048 20 2.58625L2.58497 20C2.39921 20.1857 2.25185 20.4062 2.15131 20.6489C2.05077 20.8916 1.99902 21.1517 1.99902 21.4144C1.99902 21.6771 2.05077 21.9372 2.15131 22.1798C2.25185 22.4225 2.39921 22.643 2.58497 22.8288L9.17122 29.4137C9.35695 29.5995 9.57744 29.7469 9.82012 29.8474C10.0628 29.948 10.3229 29.9997 10.5856 29.9997C10.8483 29.9997 11.1084 29.948 11.3511 29.8474C11.5938 29.7469 11.8142 29.5995 12 29.4137L29.415 12C29.6007 11.8143 29.7481 11.5938 29.8486 11.3511C29.9492 11.1084 30.0009 10.8483 30.0009 10.5856C30.0009 10.3229 29.9492 10.0628 29.8486 9.82015C29.7481 9.57747 29.6007 9.35697 29.415 9.17125ZM10.585 28L3.99997 21.4137L7.99997 17.4137L11.2925 20.7075C11.3854 20.8004 11.4957 20.8741 11.6171 20.9244C11.7385 20.9747 11.8686 21.0006 12 21.0006C12.1314 21.0006 12.2615 20.9747 12.3829 20.9244C12.5043 20.8741 12.6146 20.8004 12.7075 20.7075C12.8004 20.6146 12.8741 20.5043 12.9244 20.3829C12.9746 20.2615 13.0005 20.1314 13.0005 20C13.0005 19.8686 12.9746 19.7385 12.9244 19.6171C12.8741 19.4957 12.8004 19.3854 12.7075 19.2925L9.41372 16L12 13.4137L15.2925 16.7075C15.4801 16.8951 15.7346 17.0006 16 17.0006C16.2653 17.0006 16.5198 16.8951 16.7075 16.7075C16.8951 16.5199 17.0005 16.2654 17.0005 16C17.0005 15.7346 16.8951 15.4801 16.7075 15.2925L13.4137 12L16 9.41375L19.2925 12.7075C19.3854 12.8004 19.4957 12.8741 19.6171 12.9244C19.7385 12.9747 19.8686 13.0006 20 13.0006C20.1314 13.0006 20.2615 12.9747 20.3829 12.9244C20.5043 12.8741 20.6146 12.8004 20.7075 12.7075C20.8004 12.6146 20.8741 12.5043 20.9244 12.3829C20.9746 12.2615 21.0005 12.1314 21.0005 12C21.0005 11.8686 20.9746 11.7385 20.9244 11.6171C20.8741 11.4957 20.8004 11.3854 20.7075 11.2925L17.4137 8L21.4137 4L28 10.5862L10.585 28Z" />
</symbol>

<symbol id="Car" viewBox="0 0 30 23" >
  <path d="M29 9H27.65L24.1775 1.1875C24.0204 0.834034 23.7641 0.533724 23.4397 0.322956C23.1153 0.112187 22.7368 4.63025e-06 22.35 0H7.65C7.26317 4.63025e-06 6.88465 0.112187 6.56029 0.322956C6.23593 0.533724 5.97965 0.834034 5.8225 1.1875L2.35 9H1C0.734784 9 0.48043 9.10536 0.292893 9.29289C0.105357 9.48043 0 9.73478 0 10C0 10.2652 0.105357 10.5196 0.292893 10.7071C0.48043 10.8946 0.734784 11 1 11H2V21C2 21.5304 2.21071 22.0391 2.58579 22.4142C2.96086 22.7893 3.46957 23 4 23H7C7.53043 23 8.03914 22.7893 8.41421 22.4142C8.78929 22.0391 9 21.5304 9 21V19H21V21C21 21.5304 21.2107 22.0391 21.5858 22.4142C21.9609 22.7893 22.4696 23 23 23H26C26.5304 23 27.0391 22.7893 27.4142 22.4142C27.7893 22.0391 28 21.5304 28 21V11H29C29.2652 11 29.5196 10.8946 29.7071 10.7071C29.8946 10.5196 30 10.2652 30 10C30 9.73478 29.8946 9.48043 29.7071 9.29289C29.5196 9.10536 29.2652 9 29 9ZM7.65 2H22.35L25.4613 9H4.53875L7.65 2ZM7 21H4V19H7V21ZM23 21V19H26V21H23ZM26 17H4V11H26V17ZM6 14C6 13.7348 6.10536 13.4804 6.29289 13.2929C6.48043 13.1054 6.73478 13 7 13H9C9.26522 13 9.51957 13.1054 9.70711 13.2929C9.89464 13.4804 10 13.7348 10 14C10 14.2652 9.89464 14.5196 9.70711 14.7071C9.51957 14.8946 9.26522 15 9 15H7C6.73478 15 6.48043 14.8946 6.29289 14.7071C6.10536 14.5196 6 14.2652 6 14ZM20 14C20 13.7348 20.1054 13.4804 20.2929 13.2929C20.4804 13.1054 20.7348 13 21 13H23C23.2652 13 23.5196 13.1054 23.7071 13.2929C23.8946 13.4804 24 13.7348 24 14C24 14.2652 23.8946 14.5196 23.7071 14.7071C23.5196 14.8946 23.2652 15 23 15H21C20.7348 15 20.4804 14.8946 20.2929 14.7071C20.1054 14.5196 20 14.2652 20 14Z" />
</symbol>

<symbol id="Armchair" viewBox="0 0 32 32">
  <path d="M26.9999 11.1V9C26.9999 7.67392 26.4731 6.40215 25.5354 5.46447C24.5977 4.52678 23.326 4 21.9999 4H9.99989C8.6738 4 7.40203 4.52678 6.46435 5.46447C5.52667 6.40215 4.99989 7.67392 4.99989 9V11.1C3.8696 11.3295 2.85341 11.9427 2.12351 12.8357C1.3936 13.7288 0.994873 14.8466 0.994873 16C0.994873 17.1534 1.3936 18.2712 2.12351 19.1643C2.85341 20.0573 3.8696 20.6705 4.99989 20.9V25C4.99989 25.5304 5.2106 26.0391 5.58567 26.4142C5.96074 26.7893 6.46945 27 6.99989 27H24.9999C25.5303 27 26.039 26.7893 26.4141 26.4142C26.7892 26.0391 26.9999 25.5304 26.9999 25V20.9C28.1302 20.6705 29.1464 20.0573 29.8763 19.1643C30.6062 18.2712 31.0049 17.1534 31.0049 16C31.0049 14.8466 30.6062 13.7288 29.8763 12.8357C29.1464 11.9427 28.1302 11.3295 26.9999 11.1ZM9.99989 6H21.9999C22.7955 6 23.5586 6.31607 24.1212 6.87868C24.6838 7.44129 24.9999 8.20435 24.9999 9V11.1C23.8713 11.3321 22.8572 11.9461 22.1285 12.8387C21.3999 13.7313 21.0013 14.8478 20.9999 16H10.9999C10.9985 14.8478 10.5999 13.7313 9.87122 12.8387C9.14259 11.9461 8.12849 11.3321 6.99989 11.1V9C6.99989 8.20435 7.31596 7.44129 7.87857 6.87868C8.44117 6.31607 9.20424 6 9.99989 6ZM26.0486 19H25.9999C25.7347 19 25.4803 19.1054 25.2928 19.2929C25.1052 19.4804 24.9999 19.7348 24.9999 20V25H6.99989V20C6.99989 19.7348 6.89453 19.4804 6.70699 19.2929C6.51946 19.1054 6.2651 19 5.99989 19H5.95114C5.35996 18.9904 4.78481 18.8063 4.29792 18.4709C3.81102 18.1355 3.4341 17.6636 3.2145 17.1147C2.99489 16.5657 2.94239 15.9641 3.0636 15.3854C3.1848 14.8067 3.4743 14.2767 3.89573 13.862C4.31716 13.4474 4.85174 13.1664 5.43231 13.0546C6.01289 12.9427 6.61357 13.0049 7.15891 13.2333C7.70426 13.4618 8.16994 13.8462 8.49748 14.3385C8.82502 14.8307 8.99981 15.4087 8.99989 16V21C8.99989 21.2652 9.10524 21.5196 9.29278 21.7071C9.48032 21.8946 9.73467 22 9.99989 22C10.2651 22 10.5195 21.8946 10.707 21.7071C10.8945 21.5196 10.9999 21.2652 10.9999 21V18H20.9999V21C20.9999 21.2652 21.1052 21.5196 21.2928 21.7071C21.4803 21.8946 21.7347 22 21.9999 22C22.2651 22 22.5195 21.8946 22.707 21.7071C22.8945 21.5196 22.9999 21.2652 22.9999 21V16C23 15.4087 23.1747 14.8307 23.5023 14.3385C23.8298 13.8462 24.2955 13.4618 24.8409 13.2333C25.3862 13.0049 25.9869 12.9427 26.5675 13.0546C27.148 13.1664 27.6826 13.4474 28.104 13.862C28.5255 14.2767 28.815 14.8067 28.9362 15.3854C29.0574 15.9641 29.0049 16.5657 28.7853 17.1147C28.5657 17.6636 28.1887 18.1355 27.7019 18.4709C27.215 18.8063 26.6398 18.9904 26.0486 19Z" />
</symbol>

<symbol id="Medal" viewBox="0 0 32 32" >
  <path fill-rule="evenodd" clip-rule="evenodd" d="M16 3C11.0294 3 7 7.02944 7 12C7 16.9706 11.0294 21 16 21C20.9706 21 25 16.9706 25 12C25 7.02944 20.9706 3 16 3ZM5 12C5 5.92487 9.92487 1 16 1C22.0751 1 27 5.92487 27 12C27 18.0751 22.0751 23 16 23C9.92487 23 5 18.0751 5 12Z" />
  <path fill-rule="evenodd" clip-rule="evenodd" d="M16 7C13.2386 7 11 9.23858 11 12C11 14.7614 13.2386 17 16 17C18.7614 17 21 14.7614 21 12C21 9.23858 18.7614 7 16 7ZM9 12C9 8.13401 12.134 5 16 5C19.866 5 23 8.13401 23 12C23 15.866 19.866 19 16 19C12.134 19 9 15.866 9 12Z" />
  <path fill-rule="evenodd" clip-rule="evenodd" d="M10 19C10.5523 19 11 19.4477 11 20V28.382L15.5528 26.1056C15.8343 25.9648 16.1657 25.9648 16.4472 26.1056L21 28.382V20C21 19.4477 21.4477 19 22 19C22.5523 19 23 19.4477 23 20V30C23 30.3466 22.8205 30.6684 22.5257 30.8507C22.2309 31.0329 21.8628 31.0494 21.5528 30.8944L16 28.118L10.4472 30.8944C10.1372 31.0494 9.76909 31.0329 9.47427 30.8507C9.17945 30.6684 9 30.3466 9 30V20C9 19.4477 9.44772 19 10 19Z" />
</symbol>

<symbol id="Cap" viewBox="0 0 32 32" >
  <path d="M31.4699 11.1175L16.4699 3.11749C16.3252 3.04045 16.1638 3.00015 15.9999 3.00015C15.836 3.00015 15.6746 3.04045 15.5299 3.11749L0.529932 11.1175C0.369937 11.2028 0.236132 11.3299 0.142832 11.4854C0.0495308 11.6408 0.000244141 11.8187 0.000244141 12C0.000244141 12.1813 0.0495308 12.3592 0.142832 12.5146C0.236132 12.6701 0.369937 12.7972 0.529932 12.8825L3.99993 14.7337V20.7862C3.99889 21.2774 4.17967 21.7516 4.50743 22.1175C6.14493 23.9412 9.81368 27 15.9999 27C18.0511 27.017 20.087 26.6454 21.9999 25.905V30C21.9999 30.2652 22.1053 30.5196 22.2928 30.7071C22.4804 30.8946 22.7347 31 22.9999 31C23.2651 31 23.5195 30.8946 23.707 30.7071C23.8946 30.5196 23.9999 30.2652 23.9999 30V24.9387C25.3039 24.186 26.4823 23.2341 27.4924 22.1175C27.8202 21.7516 28.001 21.2774 27.9999 20.7862V14.7337L31.4699 12.8825C31.6299 12.7972 31.7637 12.6701 31.857 12.5146C31.9503 12.3592 31.9996 12.1813 31.9996 12C31.9996 11.8187 31.9503 11.6408 31.857 11.4854C31.7637 11.3299 31.6299 11.2028 31.4699 11.1175ZM15.9999 25C10.5912 25 7.40993 22.3575 5.99993 20.7862V15.8L15.5299 20.8825C15.6746 20.9595 15.836 20.9998 15.9999 20.9998C16.1638 20.9998 16.3252 20.9595 16.4699 20.8825L21.9999 17.9337V23.7262C20.4249 24.4612 18.4399 25 15.9999 25ZM25.9999 20.7812C25.4005 21.4464 24.7298 22.0438 23.9999 22.5625V16.8662L25.9999 15.8V20.7812ZM23.4999 14.8675L23.4724 14.8512L16.4724 11.1175C16.2389 10.9982 15.9678 10.9754 15.7176 11.0541C15.4675 11.1327 15.2582 11.3065 15.1349 11.538C15.0117 11.7694 14.9842 12.0401 15.0586 12.2916C15.1329 12.543 15.3031 12.7553 15.5324 12.8825L21.3749 16L15.9999 18.8662L3.12493 12L15.9999 5.13374L28.8749 12L23.4999 14.8675Z" />
</symbol>

<symbol id="Dress" viewBox="0 0 32 32" >
  <path d="M26.8375 26.2125C26.8337 26.2018 26.8291 26.1913 26.8238 26.1812L21.1388 14.0737L23.7013 10.0513C23.7063 10.044 23.7109 10.0365 23.715 10.0288C23.9014 9.71798 23.9999 9.36239 23.9999 9C23.9999 8.63761 23.9014 8.28203 23.715 7.97125C23.7038 7.95125 23.69 7.93125 23.6775 7.9125L21 4.0875V1C21 0.734784 20.8947 0.48043 20.7071 0.292893C20.5196 0.105357 20.2653 0 20 0C19.7348 0 19.4805 0.105357 19.2929 0.292893C19.1054 0.48043 19 0.734784 19 1V4.0525L18.3425 4.875C18.0615 5.22628 17.705 5.50986 17.2995 5.70473C16.894 5.8996 16.4499 6.00078 16 6.00078C15.5502 6.00078 15.106 5.8996 14.7006 5.70473C14.2951 5.50986 13.9386 5.22628 13.6575 4.875L13 4.0525V1C13 0.734784 12.8947 0.48043 12.7071 0.292893C12.5196 0.105357 12.2653 0 12 0C11.7348 0 11.4805 0.105357 11.2929 0.292893C11.1054 0.48043 11 0.734784 11 1V4.0875L8.32254 7.9125C8.31004 7.93125 8.29629 7.95125 8.28504 7.97125C8.09864 8.28203 8.00017 8.63761 8.00017 9C8.00017 9.36239 8.09864 9.71798 8.28504 10.0288C8.28917 10.0365 8.29376 10.044 8.29879 10.0513L10.8613 14.0737L5.17629 26.1812C5.17096 26.1913 5.16637 26.2018 5.16254 26.2125C5.03227 26.5166 4.97948 26.8483 5.0089 27.1779C5.03833 27.5074 5.14905 27.8245 5.33114 28.1007C5.51323 28.377 5.76101 28.6037 6.05228 28.7607C6.34354 28.9176 6.66919 28.9998 7.00004 29H25C25.331 29.0001 25.6568 28.918 25.9482 28.7611C26.2397 28.6043 26.4876 28.3775 26.6699 28.1013C26.8521 27.825 26.9629 27.5078 26.9924 27.1782C27.0219 26.8485 26.9691 26.5167 26.8388 26.2125H26.8375ZM10 9L12.0538 6.07125L12.095 6.12375C12.5635 6.70952 13.1577 7.18241 13.8336 7.50738C14.5096 7.83236 15.25 8.00109 16 8.00109C16.7501 8.00109 17.4905 7.83236 18.1665 7.50738C18.8424 7.18241 19.4366 6.70952 19.905 6.12375L19.9463 6.07125L22 9L19.4525 13H12.5488L10 9ZM7.00004 27L12.6338 15H19.3638L25 27H7.00004Z" />
</symbol>

<symbol id="Parking" viewBox="0 0 32 32" >
  <path d="M30 23H29V7.23749L30.2087 6.97749C30.3399 6.95289 30.4649 6.90227 30.5762 6.82862C30.6875 6.75497 30.783 6.65978 30.8569 6.54866C30.9309 6.43754 30.9818 6.31274 31.0068 6.18162C31.0317 6.05049 31.0302 5.9157 31.0022 5.78519C30.9743 5.65467 30.9205 5.53107 30.844 5.42167C30.7675 5.31228 30.6699 5.2193 30.5569 5.14822C30.444 5.07714 30.3179 5.02939 30.1862 5.0078C30.0545 4.98621 29.9198 4.9912 29.79 5.02249L1.79 11.0225C1.54878 11.0745 1.33533 11.214 1.19069 11.4139C1.04606 11.6138 0.980465 11.8602 1.00652 12.1056C1.03258 12.351 1.14846 12.5781 1.33186 12.7432C1.51526 12.9083 1.75323 12.9998 2 13C2.07101 12.9999 2.14181 12.9923 2.21125 12.9775L3 12.8087V23H2C1.73478 23 1.48043 23.1053 1.29289 23.2929C1.10536 23.4804 1 23.7348 1 24C1 24.2652 1.10536 24.5196 1.29289 24.7071C1.48043 24.8946 1.73478 25 2 25H30C30.2652 25 30.5196 24.8946 30.7071 24.7071C30.8946 24.5196 31 24.2652 31 24C31 23.7348 30.8946 23.4804 30.7071 23.2929C30.5196 23.1053 30.2652 23 30 23ZM5 12.375L27 7.66624V23H24V16C24 15.7348 23.8946 15.4804 23.7071 15.2929C23.5196 15.1053 23.2652 15 23 15H9C8.73478 15 8.48043 15.1053 8.29289 15.2929C8.10536 15.4804 8 15.7348 8 16V23H5V12.375ZM22 19H10V17H22V19ZM10 21H22V23H10V21Z" />
</symbol>

</svg>
