<?xml version="1.0" encoding="UTF-8"?>
<svg xmlns="http://www.w3.org/2000/svg" xmlns:xlink="http://www.w3.org/1999/xlink" width="0" height="0">
<symbol id="CoinIn" viewBox="0 0 20 20">
<path fill-rule="evenodd" clip-rule="evenodd" d="M10 3.125C13.797 3.125 16.875 6.20304 16.875 10C16.875 13.797 13.797 16.875 10 16.875C6.20304 16.875 3.125 13.797 3.125 10V8.75046C3.125 8.40528 2.84518 8.125 2.5 8.125C2.15482 8.125 1.875 8.40482 1.875 8.75V10C1.875 14.4873 5.51269 18.125 10 18.125C14.4873 18.125 18.125 14.4873 18.125 10C18.125 5.51269 14.4873 1.875 10 1.875L8.7506 1.875L8.75001 3.125L10 3.125ZM8.125 2.5C8.125 2.84518 8.40483 3.125 8.75001 3.125L8.7506 1.875C8.40542 1.875 8.125 2.15482 8.125 2.5Z"/>
<path fill-rule="evenodd" clip-rule="evenodd" d="M2.5 5C2.15482 5 1.875 5.27982 1.875 5.625C1.875 5.97018 2.15482 6.25 2.5 6.25H5.625C5.97018 6.25 6.25 5.97018 6.25 5.625V2.5C6.25 2.15482 5.97018 1.875 5.625 1.875C5.27982 1.875 5 2.15482 5 2.5V4.11612L2.94194 2.05806C2.69786 1.81398 2.30214 1.81398 2.05806 2.05806C1.81398 2.30214 1.81398 2.69786 2.05806 2.94194L4.11612 5H2.5Z"/>
<path d="M10 5C10.3452 5 10.625 5.27982 10.625 5.625V6.25H11.875C12.2202 6.25 12.5 6.52982 12.5 6.875C12.5 7.22018 12.2202 7.5 11.875 7.5H9.0625C8.81386 7.5 8.5754 7.59877 8.39959 7.77459C8.22377 7.9504 8.125 8.18886 8.125 8.4375C8.125 8.68614 8.22377 8.9246 8.39959 9.10041C8.5754 9.27623 8.81386 9.375 9.0625 9.375H10.9375C11.5177 9.375 12.0741 9.60547 12.4843 10.0157C12.8945 10.4259 13.125 10.9823 13.125 11.5625C13.125 12.1427 12.8945 12.6991 12.4843 13.1093C12.0741 13.5195 11.5177 13.75 10.9375 13.75H10.625V14.375C10.625 14.7202 10.3452 15 10 15C9.65482 15 9.375 14.7202 9.375 14.375V13.75H8.125C7.77982 13.75 7.5 13.4702 7.5 13.125C7.5 12.7798 7.77982 12.5 8.125 12.5H10.9375C11.1861 12.5 11.4246 12.4012 11.6004 12.2254C11.7762 12.0496 11.875 11.8111 11.875 11.5625C11.875 11.3139 11.7762 11.0754 11.6004 10.8996C11.4246 10.7238 11.1861 10.625 10.9375 10.625H9.0625C8.48234 10.625 7.92594 10.3945 7.5157 9.9843C7.10547 9.57406 6.875 9.01766 6.875 8.4375C6.875 7.85734 7.10547 7.30094 7.5157 6.8907C7.92594 6.48047 8.48234 6.25 9.0625 6.25H9.375V5.625C9.375 5.27982 9.65482 5 10 5Z"/>
</symbol>

<symbol id="CoinOut" viewBox="0 0 21 20">
<path fill-rule="evenodd" clip-rule="evenodd" d="M10.3333 3.125C6.53637 3.125 3.45833 6.20304 3.45833 10C3.45833 13.797 6.53637 16.875 10.3333 16.875C14.1303 16.875 17.2083 13.797 17.2083 10V8.75046C17.2083 8.40528 17.4882 8.125 17.8333 8.125C18.1785 8.125 18.4583 8.40482 18.4583 8.75V10C18.4583 14.4873 14.8206 18.125 10.3333 18.125C5.84601 18.125 2.20833 14.4873 2.20833 10C2.20833 5.51269 5.84601 1.875 10.3333 1.875L11.5827 1.875L11.5833 3.125L10.3333 3.125ZM12.2083 2.5C12.2083 2.84518 11.9285 3.125 11.5833 3.125L11.5827 1.875C11.9279 1.875 12.2083 2.15482 12.2083 2.5Z"/>
<path fill-rule="evenodd" clip-rule="evenodd" d="M14.7083 3.125C14.3632 3.125 14.0833 2.84518 14.0833 2.5C14.0833 2.15482 14.3632 1.875 14.7083 1.875H17.8333C18.1785 1.875 18.4583 2.15482 18.4583 2.5V5.625C18.4583 5.97018 18.1785 6.25 17.8333 6.25C17.4882 6.25 17.2083 5.97018 17.2083 5.625V4.00888L15.1503 6.06694C14.9062 6.31102 14.5105 6.31102 14.2664 6.06694C14.0223 5.82286 14.0223 5.42714 14.2664 5.18306L16.3244 3.125H14.7083Z"/>
<path d="M10.3333 5C10.6785 5 10.9583 5.27982 10.9583 5.625V6.25H12.2083C12.5535 6.25 12.8333 6.52982 12.8333 6.875C12.8333 7.22018 12.5535 7.5 12.2083 7.5H9.39583C9.14719 7.5 8.90873 7.59877 8.73292 7.77459C8.5571 7.9504 8.45833 8.18886 8.45833 8.4375C8.45833 8.68614 8.5571 8.9246 8.73292 9.10041C8.90873 9.27623 9.14719 9.375 9.39583 9.375H11.2708C11.851 9.375 12.4074 9.60547 12.8176 10.0157C13.2279 10.4259 13.4583 10.9823 13.4583 11.5625C13.4583 12.1427 13.2279 12.6991 12.8176 13.1093C12.4074 13.5195 11.851 13.75 11.2708 13.75H10.9583V14.375C10.9583 14.7202 10.6785 15 10.3333 15C9.98815 15 9.70833 14.7202 9.70833 14.375V13.75H8.45833C8.11315 13.75 7.83333 13.4702 7.83333 13.125C7.83333 12.7798 8.11315 12.5 8.45833 12.5H11.2708C11.5195 12.5 11.7579 12.4012 11.9337 12.2254C12.1096 12.0496 12.2083 11.8111 12.2083 11.5625C12.2083 11.3139 12.1096 11.0754 11.9337 10.8996C11.7579 10.7238 11.5195 10.625 11.2708 10.625H9.39583C8.81567 10.625 8.25927 10.3945 7.84903 9.9843C7.4388 9.57406 7.20833 9.01766 7.20833 8.4375C7.20833 7.85734 7.4388 7.30094 7.84903 6.8907C8.25927 6.48047 8.81567 6.25 9.39583 6.25H9.70833V5.625C9.70833 5.27982 9.98815 5 10.3333 5Z"/>
</symbol>

<symbol id="DotsThreeVertical" viewBox="0 0 19 18">
<path d="M9.33333 9.84375C9.79932 9.84375 10.1771 9.46599 10.1771 9C10.1771 8.53401 9.79932 8.15625 9.33333 8.15625C8.86734 8.15625 8.48958 8.53401 8.48958 9C8.48958 9.46599 8.86734 9.84375 9.33333 9.84375Z"/>
<path d="M9.33333 5.34375C9.79932 5.34375 10.1771 4.96599 10.1771 4.5C10.1771 4.03401 9.79932 3.65625 9.33333 3.65625C8.86734 3.65625 8.48958 4.03401 8.48958 4.5C8.48958 4.96599 8.86734 5.34375 9.33333 5.34375Z"/>
<path d="M9.33333 14.3438C9.79932 14.3438 10.1771 13.966 10.1771 13.5C10.1771 13.034 9.79932 12.6562 9.33333 12.6562C8.86734 12.6562 8.48958 13.034 8.48958 13.5C8.48958 13.966 8.86734 14.3438 9.33333 14.3438Z"/>
</symbol>

<symbol id="Wallet" viewBox="0 0 21 20">
<path fill-rule="evenodd" clip-rule="evenodd" d="M5.04169 4.375C4.87593 4.375 4.71696 4.44085 4.59975 4.55806C4.48253 4.67527 4.41669 4.83424 4.41669 5C4.41669 5.16576 4.48253 5.32473 4.59975 5.44194C4.71696 5.55915 4.87593 5.625 5.04169 5.625H17.5417C17.8732 5.625 18.1911 5.7567 18.4256 5.99112C18.66 6.22554 18.7917 6.54348 18.7917 6.875V15.625C18.7917 15.9565 18.66 16.2745 18.4256 16.5089C18.1911 16.7433 17.8732 16.875 17.5417 16.875H5.04169C4.54441 16.875 4.06749 16.6775 3.71586 16.3258C3.36423 15.9742 3.16669 15.4973 3.16669 15V5C3.16669 4.50272 3.36423 4.02581 3.71586 3.67417C4.06749 3.32254 4.54441 3.125 5.04169 3.125H15.6667C16.0119 3.125 16.2917 3.40482 16.2917 3.75C16.2917 4.09518 16.0119 4.375 15.6667 4.375H5.04169ZM4.41669 6.76777V15C4.41669 15.1658 4.48253 15.3247 4.59975 15.4419C4.71696 15.5592 4.87593 15.625 5.04169 15.625H17.5417V6.875H5.04169C4.82672 6.875 4.61556 6.83809 4.41669 6.76777Z"/>
<path d="M14.7292 12.1875C15.247 12.1875 15.6667 11.7678 15.6667 11.25C15.6667 10.7322 15.247 10.3125 14.7292 10.3125C14.2114 10.3125 13.7917 10.7322 13.7917 11.25C13.7917 11.7678 14.2114 12.1875 14.7292 12.1875Z"/>
</symbol>

</svg>
