<svg width="11" height="10" viewBox="0 0 11 10" fill="none" xmlns="http://www.w3.org/2000/svg">
<path fill-rule="evenodd" clip-rule="evenodd" d="M1.04986 2.59153C1.1719 2.46949 1.36976 2.46949 1.4918 2.59153L4.08333 5.18306L5.42486 3.84153C5.5469 3.71949 5.74476 3.71949 5.8668 3.84153L9.6168 7.59153C9.73884 7.71357 9.73884 7.91143 9.6168 8.03347C9.49476 8.15551 9.2969 8.15551 9.17486 8.03347L5.64583 4.50444L4.3043 5.84597C4.18226 5.96801 3.9844 5.96801 3.86236 5.84597L1.04986 3.03347C0.927819 2.91143 0.927819 2.71357 1.04986 2.59153Z" fill="#F73541"/>
<path fill-rule="evenodd" clip-rule="evenodd" d="M9.39583 5C9.56842 5 9.70833 5.13991 9.70833 5.3125V7.8125C9.70833 7.98509 9.56842 8.125 9.39583 8.125H6.89583C6.72324 8.125 6.58333 7.98509 6.58333 7.8125C6.58333 7.63991 6.72324 7.5 6.89583 7.5H9.08333V5.3125C9.08333 5.13991 9.22324 5 9.39583 5Z" fill="#F73541"/>
</svg>
