<svg width="10" height="10" viewBox="0 0 10 10" fill="none" xmlns="http://www.w3.org/2000/svg">
<path fill-rule="evenodd" clip-rule="evenodd" d="M9.28347 2.27903C9.40551 2.40107 9.40551 2.59893 9.28347 2.72097L5.53347 6.47097C5.41143 6.59301 5.21357 6.59301 5.09153 6.47097L3.75 5.12944L1.15847 7.72097C1.03643 7.84301 0.838568 7.84301 0.716529 7.72097C0.59449 7.59893 0.59449 7.40107 0.716529 7.27903L3.52903 4.46653C3.65107 4.34449 3.84893 4.34449 3.97097 4.46653L5.3125 5.80806L8.84153 2.27903C8.96357 2.15699 9.16143 2.15699 9.28347 2.27903Z" fill="#242E2C"/>
<path fill-rule="evenodd" clip-rule="evenodd" d="M6.25 2.5C6.25 2.32741 6.38991 2.1875 6.5625 2.1875H9.0625C9.23509 2.1875 9.375 2.32741 9.375 2.5V5C9.375 5.17259 9.23509 5.3125 9.0625 5.3125C8.88991 5.3125 8.75 5.17259 8.75 5V2.8125H6.5625C6.38991 2.8125 6.25 2.67259 6.25 2.5Z" fill="#242E2C"/>
</svg>
