<?xml version="1.0" encoding="UTF-8"?>
<svg xmlns="http://www.w3.org/2000/svg" xmlns:xlink="http://www.w3.org/1999/xlink" width="0" height="0">
<symbol id="ArrowsLeftRight" viewBox="0 0 24 24">
<path d="M20.0306 17.0306L17.0306 20.0306C16.8899 20.1713 16.699 20.2504 16.5 20.2504C16.301 20.2504 16.1101 20.1713 15.9694 20.0306C15.8286 19.8899 15.7496 19.699 15.7496 19.5C15.7496 19.301 15.8286 19.1101 15.9694 18.9694L17.6897 17.25H4.49998C4.30107 17.25 4.1103 17.171 3.96965 17.0303C3.829 16.8897 3.74998 16.6989 3.74998 16.5C3.74998 16.3011 3.829 16.1103 3.96965 15.9697C4.1103 15.829 4.30107 15.75 4.49998 15.75H17.6897L15.9694 14.0306C15.8286 13.8899 15.7496 13.699 15.7496 13.5C15.7496 13.301 15.8286 13.1101 15.9694 12.9694C16.1101 12.8286 16.301 12.7496 16.5 12.7496C16.699 12.7496 16.8899 12.8286 17.0306 12.9694L20.0306 15.9694C20.1003 16.039 20.1557 16.1217 20.1934 16.2128C20.2311 16.3038 20.2506 16.4014 20.2506 16.5C20.2506 16.5986 20.2311 16.6961 20.1934 16.7872C20.1557 16.8782 20.1003 16.961 20.0306 17.0306ZM6.96935 11.0306C7.11009 11.1713 7.30096 11.2504 7.49998 11.2504C7.699 11.2504 7.88987 11.1713 8.03061 11.0306C8.17134 10.8899 8.2504 10.699 8.2504 10.5C8.2504 10.301 8.17134 10.1101 8.03061 9.96936L6.31029 8.24999H19.5C19.6989 8.24999 19.8897 8.17097 20.0303 8.03032C20.171 7.88967 20.25 7.6989 20.25 7.49999C20.25 7.30108 20.171 7.11031 20.0303 6.96966C19.8897 6.82901 19.6989 6.74999 19.5 6.74999H6.31029L8.03061 5.03061C8.17134 4.88988 8.2504 4.69901 8.2504 4.49999C8.2504 4.30097 8.17133 4.1101 8.0306 3.96936C7.88987 3.82863 7.699 3.74957 7.49998 3.74957C7.30096 3.74957 7.11009 3.82863 6.96935 3.96936L3.96935 6.96936C3.89962 7.03902 3.8443 7.12174 3.80656 7.21278C3.76882 7.30383 3.74939 7.40143 3.74939 7.49999C3.74939 7.59855 3.76882 7.69615 3.80656 7.7872C3.8443 7.87824 3.89962 7.96096 3.96935 8.03061L6.96935 11.0306Z"/>
</symbol>

<symbol id="Cardholder" viewBox="0 0 24 24">
<path d="M19.5 4.5H4.5C3.90326 4.5 3.33097 4.73705 2.90901 5.15901C2.48705 5.58097 2.25 6.15326 2.25 6.75V17.25C2.25 17.8467 2.48705 18.419 2.90901 18.841C3.33097 19.2629 3.90326 19.5 4.5 19.5H19.5C20.0967 19.5 20.669 19.2629 21.091 18.841C21.5129 18.419 21.75 17.8467 21.75 17.25V6.75C21.75 6.15326 21.5129 5.58097 21.091 5.15901C20.669 4.73705 20.0967 4.5 19.5 4.5ZM3.75 9H20.25V10.5H15C14.8011 10.5 14.6103 10.579 14.4697 10.7197C14.329 10.8603 14.25 11.0511 14.25 11.25C14.25 11.8467 14.0129 12.419 13.591 12.841C13.169 13.2629 12.5967 13.5 12 13.5C11.4033 13.5 10.831 13.2629 10.409 12.841C9.98705 12.419 9.75 11.8467 9.75 11.25C9.75 11.0511 9.67098 10.8603 9.53033 10.7197C9.38968 10.579 9.19891 10.5 9 10.5H3.75V9ZM4.5 6H19.5C19.6989 6 19.8897 6.07902 20.0303 6.21967C20.171 6.36032 20.25 6.55109 20.25 6.75V7.5H3.75V6.75C3.75 6.55109 3.82902 6.36032 3.96967 6.21967C4.11032 6.07902 4.30109 6 4.5 6ZM19.5 18H4.5C4.30109 18 4.11032 17.921 3.96967 17.7803C3.82902 17.6397 3.75 17.4489 3.75 17.25V12H8.325C8.49714 12.8477 8.95705 13.6099 9.62681 14.1573C10.2966 14.7047 11.135 15.0038 12 15.0038C12.865 15.0038 13.7034 14.7047 14.3732 14.1573C15.043 13.6099 15.5029 12.8477 15.675 12H20.25V17.25C20.25 17.4489 20.171 17.6397 20.0303 17.7803C19.8897 17.921 19.6989 18 19.5 18Z"/>
</symbol>

<symbol id="Coins" viewBox="0 0 24 24">
<path d="M17.25 8.39719V7.875C17.25 5.52375 13.7034 3.75 9 3.75C4.29656 3.75 0.75 5.52375 0.75 7.875V11.625C0.75 13.5834 3.21094 15.1397 6.75 15.6056V16.125C6.75 18.4762 10.2966 20.25 15 20.25C19.7034 20.25 23.25 18.4762 23.25 16.125V12.375C23.25 10.4344 20.8669 8.87625 17.25 8.39719ZM21.75 12.375C21.75 13.6144 18.8634 15 15 15C14.6503 15 14.3034 14.9878 13.9613 14.9653C15.9834 14.2284 17.25 13.0312 17.25 11.625V9.91313C20.0503 10.3303 21.75 11.4628 21.75 12.375ZM6.75 14.0859V11.8556C7.49604 11.9528 8.24765 12.0011 9 12C9.75235 12.0011 10.504 11.9528 11.25 11.8556V14.0859C10.5051 14.196 9.75302 14.2508 9 14.25C8.24698 14.2508 7.49493 14.196 6.75 14.0859ZM15.75 10.3059V11.625C15.75 12.4116 14.5866 13.2562 12.75 13.7691V11.5781C13.9603 11.2847 14.985 10.8478 15.75 10.3059ZM9 5.25C12.8634 5.25 15.75 6.63562 15.75 7.875C15.75 9.11438 12.8634 10.5 9 10.5C5.13656 10.5 2.25 9.11438 2.25 7.875C2.25 6.63562 5.13656 5.25 9 5.25ZM2.25 11.625V10.3059C3.015 10.8478 4.03969 11.2847 5.25 11.5781V13.7691C3.41344 13.2562 2.25 12.4116 2.25 11.625ZM8.25 16.125V15.7341C8.49656 15.7434 8.74594 15.75 9 15.75C9.36375 15.75 9.71906 15.7378 10.0678 15.7172C10.4552 15.8559 10.8499 15.9736 11.25 16.0697V18.2691C9.41344 17.7562 8.25 16.9116 8.25 16.125ZM12.75 18.5859V16.35C13.4958 16.4503 14.2475 16.5004 15 16.5C15.7523 16.5011 16.504 16.4528 17.25 16.3556V18.5859C15.758 18.8047 14.242 18.8047 12.75 18.5859ZM18.75 18.2691V16.0781C19.9603 15.7847 20.985 15.3478 21.75 14.8059V16.125C21.75 16.9116 20.5866 17.7562 18.75 18.2691Z"/>
</symbol>

<symbol id="CreditCard" viewBox="0 0 24 24">
<path d="M21 4.5H3C2.60218 4.5 2.22064 4.65804 1.93934 4.93934C1.65804 5.22064 1.5 5.60218 1.5 6V18C1.5 18.3978 1.65804 18.7794 1.93934 19.0607C2.22064 19.342 2.60218 19.5 3 19.5H21C21.3978 19.5 21.7794 19.342 22.0607 19.0607C22.342 18.7794 22.5 18.3978 22.5 18V6C22.5 5.60218 22.342 5.22064 22.0607 4.93934C21.7794 4.65804 21.3978 4.5 21 4.5ZM21 6V8.25H3V6H21ZM21 18H3V9.75H21V18ZM19.5 15.75C19.5 15.9489 19.421 16.1397 19.2803 16.2803C19.1397 16.421 18.9489 16.5 18.75 16.5H15.75C15.5511 16.5 15.3603 16.421 15.2197 16.2803C15.079 16.1397 15 15.9489 15 15.75C15 15.5511 15.079 15.3603 15.2197 15.2197C15.3603 15.079 15.5511 15 15.75 15H18.75C18.9489 15 19.1397 15.079 19.2803 15.2197C19.421 15.3603 19.5 15.5511 19.5 15.75ZM13.5 15.75C13.5 15.9489 13.421 16.1397 13.2803 16.2803C13.1397 16.421 12.9489 16.5 12.75 16.5H11.25C11.0511 16.5 10.8603 16.421 10.7197 16.2803C10.579 16.1397 10.5 15.9489 10.5 15.75C10.5 15.5511 10.579 15.3603 10.7197 15.2197C10.8603 15.079 11.0511 15 11.25 15H12.75C12.9489 15 13.1397 15.079 13.2803 15.2197C13.421 15.3603 13.5 15.5511 13.5 15.75Z"/>
</symbol>

<symbol id="CurrencyEth" viewBox="0 0 24 24">
<path d="M20.8397 11.5369L12.5897 1.03687C12.5195 0.947576 12.43 0.875383 12.3278 0.825741C12.2257 0.776099 12.1136 0.750305 12 0.750305C11.8864 0.750305 11.7743 0.776099 11.6722 0.825741C11.57 0.875383 11.4805 0.947576 11.4103 1.03687L3.16032 11.5369C3.05661 11.669 3.00024 11.8321 3.00024 12C3.00024 12.1679 3.05661 12.331 3.16032 12.4631L11.4103 22.9631C11.4805 23.0524 11.57 23.1246 11.6722 23.1743C11.7743 23.2239 11.8864 23.2497 12 23.2497C12.1136 23.2497 12.2257 23.2239 12.3278 23.1743C12.43 23.1246 12.5195 23.0524 12.5897 22.9631L20.8397 12.4631C20.9434 12.331 20.9998 12.1679 20.9998 12C20.9998 11.8321 20.9434 11.669 20.8397 11.5369ZM12.75 3.66844L19.0706 11.7122L12.75 14.5856V3.66844ZM11.25 14.5856L4.92938 11.7122L11.25 3.66844V14.5856ZM11.25 16.2328V20.3316L6.24094 13.9566L11.25 16.2328ZM12.75 16.2328L17.7591 13.9556L12.75 20.3306V16.2328Z"/>
</symbol>

<symbol id="Envelope" viewBox="0 0 24 24">
<path d="M21 4.5H3C2.80109 4.5 2.61032 4.57902 2.46967 4.71967C2.32902 4.86032 2.25 5.05109 2.25 5.25V18C2.25 18.3978 2.40804 18.7794 2.68934 19.0607C2.97064 19.342 3.35218 19.5 3.75 19.5H20.25C20.6478 19.5 21.0294 19.342 21.3107 19.0607C21.592 18.7794 21.75 18.3978 21.75 18V5.25C21.75 5.05109 21.671 4.86032 21.5303 4.71967C21.3897 4.57902 21.1989 4.5 21 4.5ZM12 12.4828L4.92844 6H19.0716L12 12.4828ZM9.25406 12L3.75 17.0447V6.95531L9.25406 12ZM10.3641 13.0172L11.4891 14.0531C11.6274 14.1801 11.8084 14.2506 11.9963 14.2506C12.1841 14.2506 12.3651 14.1801 12.5034 14.0531L13.6284 13.0172L19.0659 18H4.92844L10.3641 13.0172ZM14.7459 12L20.25 6.95438V17.0456L14.7459 12Z"/>
</symbol>

<symbol id="Newspaper" viewBox="0 0 24 24">
<path d="M8.25 10.5C8.25 10.3011 8.32902 10.1103 8.46967 9.96967C8.61032 9.82902 8.80109 9.75 9 9.75H16.5C16.6989 9.75 16.8897 9.82902 17.0303 9.96967C17.171 10.1103 17.25 10.3011 17.25 10.5C17.25 10.6989 17.171 10.8897 17.0303 11.0303C16.8897 11.171 16.6989 11.25 16.5 11.25H9C8.80109 11.25 8.61032 11.171 8.46967 11.0303C8.32902 10.8897 8.25 10.6989 8.25 10.5ZM9 14.25H16.5C16.6989 14.25 16.8897 14.171 17.0303 14.0303C17.171 13.8897 17.25 13.6989 17.25 13.5C17.25 13.3011 17.171 13.1103 17.0303 12.9697C16.8897 12.829 16.6989 12.75 16.5 12.75H9C8.80109 12.75 8.61032 12.829 8.46967 12.9697C8.32902 13.1103 8.25 13.3011 8.25 13.5C8.25 13.6989 8.32902 13.8897 8.46967 14.0303C8.61032 14.171 8.80109 14.25 9 14.25ZM21.75 6V17.25C21.75 17.8467 21.5129 18.419 21.091 18.841C20.669 19.2629 20.0967 19.5 19.5 19.5H3C2.40505 19.5 1.83431 19.2644 1.41264 18.8446C0.990983 18.4249 0.752727 17.8553 0.75 17.2603V8.25C0.75 8.05109 0.829018 7.86032 0.96967 7.71967C1.11032 7.57902 1.30109 7.5 1.5 7.5C1.69891 7.5 1.88968 7.57902 2.03033 7.71967C2.17098 7.86032 2.25 8.05109 2.25 8.25V17.25C2.25 17.4489 2.32902 17.6397 2.46967 17.7803C2.61032 17.921 2.80109 18 3 18C3.19891 18 3.38968 17.921 3.53033 17.7803C3.67098 17.6397 3.75 17.4489 3.75 17.25V6C3.75 5.60218 3.90804 5.22064 4.18934 4.93934C4.47064 4.65804 4.85218 4.5 5.25 4.5H20.25C20.6478 4.5 21.0294 4.65804 21.3107 4.93934C21.592 5.22064 21.75 5.60218 21.75 6ZM20.25 6H5.25V17.25C5.25037 17.5055 5.20693 17.7592 5.12156 18H19.5C19.6989 18 19.8897 17.921 20.0303 17.7803C20.171 17.6397 20.25 17.4489 20.25 17.25V6Z"/>
</symbol>

<symbol id="Receipt" viewBox="0 0 24 24">
<path d="M6.75 9.75C6.75 9.55109 6.82902 9.36032 6.96967 9.21967C7.11032 9.07902 7.30109 9 7.5 9H16.5C16.6989 9 16.8897 9.07902 17.0303 9.21967C17.171 9.36032 17.25 9.55109 17.25 9.75C17.25 9.94891 17.171 10.1397 17.0303 10.2803C16.8897 10.421 16.6989 10.5 16.5 10.5H7.5C7.30109 10.5 7.11032 10.421 6.96967 10.2803C6.82902 10.1397 6.75 9.94891 6.75 9.75ZM7.5 13.5H16.5C16.6989 13.5 16.8897 13.421 17.0303 13.2803C17.171 13.1397 17.25 12.9489 17.25 12.75C17.25 12.5511 17.171 12.3603 17.0303 12.2197C16.8897 12.079 16.6989 12 16.5 12H7.5C7.30109 12 7.11032 12.079 6.96967 12.2197C6.82902 12.3603 6.75 12.5511 6.75 12.75C6.75 12.9489 6.82902 13.1397 6.96967 13.2803C7.11032 13.421 7.30109 13.5 7.5 13.5ZM21.75 5.25V19.5C21.7499 19.6278 21.7172 19.7535 21.6549 19.8651C21.5926 19.9768 21.5028 20.0706 21.394 20.1378C21.2853 20.2049 21.1611 20.2432 21.0334 20.2489C20.9057 20.2546 20.7787 20.2275 20.6644 20.1703L18 18.8381L15.3356 20.1703C15.2314 20.2225 15.1165 20.2496 15 20.2496C14.8835 20.2496 14.7686 20.2225 14.6644 20.1703L12 18.8381L9.33563 20.1703C9.23143 20.2225 9.11652 20.2496 9 20.2496C8.88348 20.2496 8.76857 20.2225 8.66437 20.1703L6 18.8381L3.33563 20.1703C3.22131 20.2275 3.09427 20.2546 2.96657 20.2489C2.83887 20.2432 2.71474 20.2049 2.60597 20.1378C2.49721 20.0706 2.40741 19.9768 2.34511 19.8651C2.28281 19.7535 2.25007 19.6278 2.25 19.5V5.25C2.25 4.85218 2.40804 4.47064 2.68934 4.18934C2.97064 3.90804 3.35218 3.75 3.75 3.75H20.25C20.6478 3.75 21.0294 3.90804 21.3107 4.18934C21.592 4.47064 21.75 4.85218 21.75 5.25ZM20.25 5.25H3.75V18.2869L5.66437 17.3287C5.76857 17.2766 5.88349 17.2495 6 17.2495C6.11651 17.2495 6.23143 17.2766 6.33563 17.3287L9 18.6619L11.6644 17.3287C11.7686 17.2766 11.8835 17.2495 12 17.2495C12.1165 17.2495 12.2314 17.2766 12.3356 17.3287L15 18.6619L17.6644 17.3287C17.7686 17.2766 17.8835 17.2495 18 17.2495C18.1165 17.2495 18.2314 17.2766 18.3356 17.3287L20.25 18.2869V5.25Z"/>
</symbol>

<symbol id="SealPercent" viewBox="0 0 24 24">
<path d="M21.1744 9.63937C20.8209 9.27 20.4553 8.88938 20.3175 8.55469C20.19 8.24813 20.1825 7.74 20.175 7.24781C20.1609 6.33281 20.1459 5.29594 19.425 4.575C18.7041 3.85406 17.6672 3.83906 16.7522 3.825C16.26 3.8175 15.7519 3.81 15.4453 3.6825C15.1116 3.54469 14.73 3.17906 14.3606 2.82562C13.7137 2.20406 12.9788 1.5 12 1.5C11.0212 1.5 10.2872 2.20406 9.63937 2.82562C9.27 3.17906 8.88938 3.54469 8.55469 3.6825C8.25 3.81 7.74 3.8175 7.24781 3.825C6.33281 3.83906 5.29594 3.85406 4.575 4.575C3.85406 5.29594 3.84375 6.33281 3.825 7.24781C3.8175 7.74 3.81 8.24813 3.6825 8.55469C3.54469 8.88844 3.17906 9.27 2.82562 9.63937C2.20406 10.2872 1.5 11.0212 1.5 12C1.5 12.9788 2.20406 13.7128 2.82562 14.3606C3.17906 14.73 3.54469 15.1106 3.6825 15.4453C3.81 15.7519 3.8175 16.26 3.825 16.7522C3.83906 17.6672 3.85406 18.7041 4.575 19.425C5.29594 20.1459 6.33281 20.1609 7.24781 20.175C7.74 20.1825 8.24813 20.19 8.55469 20.3175C8.88844 20.4553 9.27 20.8209 9.63937 21.1744C10.2863 21.7959 11.0212 22.5 12 22.5C12.9788 22.5 13.7128 21.7959 14.3606 21.1744C14.73 20.8209 15.1106 20.4553 15.4453 20.3175C15.7519 20.19 16.26 20.1825 16.7522 20.175C17.6672 20.1609 18.7041 20.1459 19.425 19.425C20.1459 18.7041 20.1609 17.6672 20.175 16.7522C20.1825 16.26 20.19 15.7519 20.3175 15.4453C20.4553 15.1116 20.8209 14.73 21.1744 14.3606C21.7959 13.7128 22.5 12.9788 22.5 12C22.5 11.0212 21.7959 10.2872 21.1744 9.63937ZM20.0916 13.3228C19.6425 13.7916 19.1775 14.2763 18.9309 14.8716C18.6947 15.4434 18.6844 16.0969 18.675 16.7297C18.6656 17.3859 18.6553 18.0731 18.3638 18.3638C18.0722 18.6544 17.3897 18.6656 16.7297 18.675C16.0969 18.6844 15.4434 18.6947 14.8716 18.9309C14.2763 19.1775 13.7916 19.6425 13.3228 20.0916C12.8541 20.5406 12.375 21 12 21C11.625 21 11.1422 20.5387 10.6772 20.0916C10.2122 19.6444 9.72375 19.1775 9.12844 18.9309C8.55656 18.6947 7.90313 18.6844 7.27031 18.675C6.61406 18.6656 5.92688 18.6553 5.63625 18.3638C5.34562 18.0722 5.33437 17.3897 5.325 16.7297C5.31562 16.0969 5.30531 15.4434 5.06906 14.8716C4.8225 14.2763 4.3575 13.7916 3.90844 13.3228C3.45937 12.8541 3 12.375 3 12C3 11.625 3.46125 11.1431 3.90844 10.6772C4.35562 10.2113 4.8225 9.72375 5.06906 9.12844C5.30531 8.55656 5.31562 7.90313 5.325 7.27031C5.33437 6.61406 5.34469 5.92688 5.63625 5.63625C5.92781 5.34562 6.61031 5.33437 7.27031 5.325C7.90313 5.31562 8.55656 5.30531 9.12844 5.06906C9.72375 4.8225 10.2084 4.3575 10.6772 3.90844C11.1459 3.45937 11.625 3 12 3C12.375 3 12.8578 3.46125 13.3228 3.90844C13.7878 4.35562 14.2763 4.8225 14.8716 5.06906C15.4434 5.30531 16.0969 5.31562 16.7297 5.325C17.3859 5.33437 18.0731 5.34469 18.3638 5.63625C18.6544 5.92781 18.6656 6.61031 18.675 7.27031C18.6844 7.90313 18.6947 8.55656 18.9309 9.12844C19.1775 9.72375 19.6425 10.2084 20.0916 10.6772C20.5406 11.1459 21 11.625 21 12C21 12.375 20.5387 12.8569 20.0916 13.3228ZM11.25 9C11.25 8.55499 11.118 8.11998 10.8708 7.74997C10.6236 7.37996 10.2722 7.09157 9.86104 6.92127C9.4499 6.75097 8.9975 6.70642 8.56105 6.79323C8.12459 6.88005 7.72368 7.09434 7.40901 7.40901C7.09434 7.72368 6.88005 8.12459 6.79323 8.56105C6.70642 8.9975 6.75097 9.4499 6.92127 9.86104C7.09157 10.2722 7.37996 10.6236 7.74997 10.8708C8.11998 11.118 8.55499 11.25 9 11.25C9.59674 11.25 10.169 11.0129 10.591 10.591C11.0129 10.169 11.25 9.59674 11.25 9ZM8.25 9C8.25 8.85166 8.29399 8.70666 8.3764 8.58332C8.45881 8.45999 8.57594 8.36386 8.71299 8.30709C8.85003 8.25032 9.00083 8.23547 9.14632 8.26441C9.2918 8.29335 9.42544 8.36478 9.53033 8.46967C9.63522 8.57456 9.70665 8.7082 9.73559 8.85368C9.76453 8.99917 9.74968 9.14997 9.69291 9.28701C9.63614 9.42406 9.54002 9.54119 9.41668 9.6236C9.29334 9.70601 9.14834 9.75 9 9.75C8.80109 9.75 8.61032 9.67098 8.46967 9.53033C8.32902 9.38968 8.25 9.19891 8.25 9ZM15 12.75C14.555 12.75 14.12 12.882 13.75 13.1292C13.38 13.3764 13.0916 13.7278 12.9213 14.139C12.751 14.5501 12.7064 15.0025 12.7932 15.439C12.88 15.8754 13.0943 16.2763 13.409 16.591C13.7237 16.9057 14.1246 17.12 14.561 17.2068C14.9975 17.2936 15.4499 17.249 15.861 17.0787C16.2722 16.9084 16.6236 16.62 16.8708 16.25C17.118 15.88 17.25 15.445 17.25 15C17.25 14.4033 17.0129 13.831 16.591 13.409C16.169 12.9871 15.5967 12.75 15 12.75ZM15 15.75C14.8517 15.75 14.7067 15.706 14.5833 15.6236C14.46 15.5412 14.3639 15.4241 14.3071 15.287C14.2503 15.15 14.2355 14.9992 14.2644 14.8537C14.2934 14.7082 14.3648 14.5746 14.4697 14.4697C14.5746 14.3648 14.7082 14.2934 14.8537 14.2644C14.9992 14.2355 15.15 14.2503 15.287 14.3071C15.4241 14.3639 15.5412 14.46 15.6236 14.5833C15.706 14.7067 15.75 14.8517 15.75 15C15.75 15.1989 15.671 15.3897 15.5303 15.5303C15.3897 15.671 15.1989 15.75 15 15.75ZM16.2806 8.78063L8.78063 16.2806C8.71094 16.3503 8.62822 16.4056 8.53717 16.4433C8.44613 16.481 8.34855 16.5004 8.25 16.5004C8.15145 16.5004 8.05387 16.481 7.96283 16.4433C7.87178 16.4056 7.78906 16.3503 7.71937 16.2806C7.64969 16.2109 7.59442 16.1282 7.5567 16.0372C7.51899 15.9461 7.49958 15.8485 7.49958 15.75C7.49958 15.6515 7.51899 15.5539 7.5567 15.4628C7.59442 15.3718 7.64969 15.2891 7.71937 15.2194L15.2194 7.71937C15.2891 7.64969 15.3718 7.59442 15.4628 7.5567C15.5539 7.51899 15.6515 7.49958 15.75 7.49958C15.8485 7.49958 15.9461 7.51899 16.0372 7.5567C16.1282 7.59442 16.2109 7.64969 16.2806 7.71937C16.3503 7.78906 16.4056 7.87178 16.4433 7.96283C16.481 8.05387 16.5004 8.15145 16.5004 8.25C16.5004 8.34855 16.481 8.44613 16.4433 8.53717C16.4056 8.62822 16.3503 8.71094 16.2806 8.78063Z"/>
</symbol>

<symbol id="SquaresFour" viewBox="0 0 24 24">
<path d="M9.75 3.75H5.25C4.85218 3.75 4.47064 3.90804 4.18934 4.18934C3.90804 4.47064 3.75 4.85218 3.75 5.25V9.75C3.75 10.1478 3.90804 10.5294 4.18934 10.8107C4.47064 11.092 4.85218 11.25 5.25 11.25H9.75C10.1478 11.25 10.5294 11.092 10.8107 10.8107C11.092 10.5294 11.25 10.1478 11.25 9.75V5.25C11.25 4.85218 11.092 4.47064 10.8107 4.18934C10.5294 3.90804 10.1478 3.75 9.75 3.75ZM9.75 9.75H5.25V5.25H9.75V9.75ZM18.75 3.75H14.25C13.8522 3.75 13.4706 3.90804 13.1893 4.18934C12.908 4.47064 12.75 4.85218 12.75 5.25V9.75C12.75 10.1478 12.908 10.5294 13.1893 10.8107C13.4706 11.092 13.8522 11.25 14.25 11.25H18.75C19.1478 11.25 19.5294 11.092 19.8107 10.8107C20.092 10.5294 20.25 10.1478 20.25 9.75V5.25C20.25 4.85218 20.092 4.47064 19.8107 4.18934C19.5294 3.90804 19.1478 3.75 18.75 3.75ZM18.75 9.75H14.25V5.25H18.75V9.75ZM9.75 12.75H5.25C4.85218 12.75 4.47064 12.908 4.18934 13.1893C3.90804 13.4706 3.75 13.8522 3.75 14.25V18.75C3.75 19.1478 3.90804 19.5294 4.18934 19.8107C4.47064 20.092 4.85218 20.25 5.25 20.25H9.75C10.1478 20.25 10.5294 20.092 10.8107 19.8107C11.092 19.5294 11.25 19.1478 11.25 18.75V14.25C11.25 13.8522 11.092 13.4706 10.8107 13.1893C10.5294 12.908 10.1478 12.75 9.75 12.75ZM9.75 18.75H5.25V14.25H9.75V18.75ZM18.75 12.75H14.25C13.8522 12.75 13.4706 12.908 13.1893 13.1893C12.908 13.4706 12.75 13.8522 12.75 14.25V18.75C12.75 19.1478 12.908 19.5294 13.1893 19.8107C13.4706 20.092 13.8522 20.25 14.25 20.25H18.75C19.1478 20.25 19.5294 20.092 19.8107 19.8107C20.092 19.5294 20.25 19.1478 20.25 18.75V14.25C20.25 13.8522 20.092 13.4706 19.8107 13.1893C19.5294 12.908 19.1478 12.75 18.75 12.75ZM18.75 18.75H14.25V14.25H18.75V18.75Z"/>
</symbol>

</svg>
