<?xml version="1.0" encoding="UTF-8"?>
<svg xmlns="http://www.w3.org/2000/svg" xmlns:xlink="http://www.w3.org/1999/xlink" width="0"
    height="0">
    <symbol id="PlusSquare" viewBox="0 0 25 24">
        <path fill-rule="evenodd" clip-rule="evenodd"
            d="M7.625 12C7.625 11.5858 7.96079 11.25 8.375 11.25H15.875C16.2892 11.25 16.625 11.5858 16.625 12C16.625 12.4142 16.2892 12.75 15.875 12.75H8.375C7.96079 12.75 7.625 12.4142 7.625 12Z" />
        <path fill-rule="evenodd" clip-rule="evenodd"
            d="M12.125 7.5C12.5392 7.5 12.875 7.83579 12.875 8.25V15.75C12.875 16.1642 12.5392 16.5 12.125 16.5C11.7108 16.5 11.375 16.1642 11.375 15.75V8.25C11.375 7.83579 11.7108 7.5 12.125 7.5Z" />
        <path fill-rule="evenodd" clip-rule="evenodd"
            d="M2.375 7.5C2.375 4.60051 4.72551 2.25 7.625 2.25H16.625C19.5245 2.25 21.875 4.60051 21.875 7.5V16.5C21.875 19.3995 19.5245 21.75 16.625 21.75H7.625C4.72551 21.75 2.375 19.3995 2.375 16.5V7.5ZM7.625 3.75C5.55393 3.75 3.875 5.42893 3.875 7.5V16.5C3.875 18.5711 5.55393 20.25 7.625 20.25H16.625C18.6961 20.25 20.375 18.5711 20.375 16.5V7.5C20.375 5.42893 18.6961 3.75 16.625 3.75H7.625Z" />
    </symbol>
    <symbol id="VirtualAccount" viewBox="0 0 25 24">
        <path fill-rule="evenodd" clip-rule="evenodd"
            d="M1.875 6C1.875 5.17157 2.54657 4.5 3.375 4.5H21.375C22.2034 4.5 22.875 5.17157 22.875 6V11.25C22.875 11.6642 22.5392 12 22.125 12C21.7108 12 21.375 11.6642 21.375 11.25V6H3.375V18H10.875C11.2892 18 11.625 18.3358 11.625 18.75C11.625 19.1642 11.2892 19.5 10.875 19.5H3.375C2.54657 19.5 1.875 18.8284 1.875 18V6Z" />
        <path fill-rule="evenodd" clip-rule="evenodd"
            d="M19.875 12.75C20.175 12.75 20.4462 12.9288 20.5644 13.2046L22.8144 18.4546C22.9775 18.8353 22.8012 19.2762 22.4204 19.4394C22.0397 19.6025 21.5988 19.4262 21.4356 19.0454L19.875 15.4039L18.3144 19.0454C18.1512 19.4262 17.7103 19.6025 17.3296 19.4394C16.9488 19.2762 16.7725 18.8353 16.9356 18.4546L19.1856 13.2046C19.3038 12.9288 19.575 12.75 19.875 12.75Z" />
        <path fill-rule="evenodd" clip-rule="evenodd"
            d="M14.625 19.5C14.925 19.5 15.1962 19.3212 15.3144 19.0454L17.5644 13.7954C17.7275 13.4147 17.5512 12.9738 17.1704 12.8106C16.7897 12.6475 16.3488 12.8238 16.1856 13.2046L14.625 16.8461L13.0644 13.2046C12.9012 12.8238 12.4603 12.6475 12.0796 12.8106C11.6988 12.9738 11.5225 13.4147 11.6856 13.7954L13.9356 19.0454C14.0538 19.3212 14.325 19.5 14.625 19.5Z" />
        <path fill-rule="evenodd" clip-rule="evenodd"
            d="M17.625 17.25C17.625 16.8358 17.9608 16.5 18.375 16.5H21.375C21.7892 16.5 22.125 16.8358 22.125 17.25C22.125 17.6642 21.7892 18 21.375 18H18.375C17.9608 18 17.625 17.6642 17.625 17.25Z" />
        <path fill-rule="evenodd" clip-rule="evenodd"
            d="M1.875 9C1.875 8.58579 2.21079 8.25 2.625 8.25H22.125C22.5392 8.25 22.875 8.58579 22.875 9C22.875 9.41421 22.5392 9.75 22.125 9.75H2.625C2.21079 9.75 1.875 9.41421 1.875 9Z" />
    </symbol>
    <symbol id="CreditCard" viewBox="0 0 25 24">
        <path
            d="M21.625 4.5H3.625C3.22718 4.5 2.84564 4.65804 2.56434 4.93934C2.28304 5.22064 2.125 5.60218 2.125 6V18C2.125 18.3978 2.28304 18.7794 2.56434 19.0607C2.84564 19.342 3.22718 19.5 3.625 19.5H21.625C22.0228 19.5 22.4044 19.342 22.6857 19.0607C22.967 18.7794 23.125 18.3978 23.125 18V6C23.125 5.60218 22.967 5.22064 22.6857 4.93934C22.4044 4.65804 22.0228 4.5 21.625 4.5ZM21.625 6V8.25H3.625V6H21.625ZM21.625 18H3.625V9.75H21.625V18ZM20.125 15.75C20.125 15.9489 20.046 16.1397 19.9053 16.2803C19.7647 16.421 19.5739 16.5 19.375 16.5H16.375C16.1761 16.5 15.9853 16.421 15.8447 16.2803C15.704 16.1397 15.625 15.9489 15.625 15.75C15.625 15.5511 15.704 15.3603 15.8447 15.2197C15.9853 15.079 16.1761 15 16.375 15H19.375C19.5739 15 19.7647 15.079 19.9053 15.2197C20.046 15.3603 20.125 15.5511 20.125 15.75ZM14.125 15.75C14.125 15.9489 14.046 16.1397 13.9053 16.2803C13.7647 16.421 13.5739 16.5 13.375 16.5H11.875C11.6761 16.5 11.4853 16.421 11.3447 16.2803C11.204 16.1397 11.125 15.9489 11.125 15.75C11.125 15.5511 11.204 15.3603 11.3447 15.2197C11.4853 15.079 11.6761 15 11.875 15H13.375C13.5739 15 13.7647 15.079 13.9053 15.2197C14.046 15.3603 14.125 15.5511 14.125 15.75Z" />
    </symbol>
    <symbol id="CoinOut" viewBox="0 0 25 24">
        <path fill-rule="evenodd" clip-rule="evenodd"
            d="M12.875 3.75C8.31865 3.75 4.625 7.44365 4.625 12C4.625 16.5563 8.31865 20.25 12.875 20.25C17.4313 20.25 21.125 16.5563 21.125 12V10.5006C21.125 10.0863 21.4608 9.75 21.875 9.75C22.2892 9.75 22.625 10.0858 22.625 10.5V12C22.625 17.3848 18.2598 21.75 12.875 21.75C7.49022 21.75 3.125 17.3848 3.125 12C3.125 6.61522 7.49022 2.25 12.875 2.25L14.3743 2.25L14.375 3.75L12.875 3.75ZM15.125 3C15.125 3.41422 14.7892 3.75 14.375 3.75L14.3743 2.25C14.7885 2.25 15.125 2.58579 15.125 3Z" />
        <path fill-rule="evenodd" clip-rule="evenodd"
            d="M18.125 3.75C17.7108 3.75 17.375 3.41421 17.375 3C17.375 2.58579 17.7108 2.25 18.125 2.25H21.875C22.2892 2.25 22.625 2.58579 22.625 3V6.75C22.625 7.16421 22.2892 7.5 21.875 7.5C21.4608 7.5 21.125 7.16421 21.125 6.75V4.81066L18.6553 7.28033C18.3624 7.57322 17.8876 7.57322 17.5947 7.28033C17.3018 6.98744 17.3018 6.51256 17.5947 6.21967L20.0643 3.75H18.125Z" />
        <path
            d="M12.875 6C13.2892 6 13.625 6.33579 13.625 6.75V7.5H15.125C15.5392 7.5 15.875 7.83579 15.875 8.25C15.875 8.66421 15.5392 9 15.125 9H11.75C11.4516 9 11.1655 9.11853 10.9545 9.3295C10.7435 9.54048 10.625 9.82663 10.625 10.125C10.625 10.4234 10.7435 10.7095 10.9545 10.9205C11.1655 11.1315 11.4516 11.25 11.75 11.25H14C14.6962 11.25 15.3639 11.5266 15.8562 12.0188C16.3484 12.5111 16.625 13.1788 16.625 13.875C16.625 14.5712 16.3484 15.2389 15.8562 15.7312C15.3639 16.2234 14.6962 16.5 14 16.5H13.625V17.25C13.625 17.6642 13.2892 18 12.875 18C12.4608 18 12.125 17.6642 12.125 17.25V16.5H10.625C10.2108 16.5 9.875 16.1642 9.875 15.75C9.875 15.3358 10.2108 15 10.625 15H14C14.2984 15 14.5845 14.8815 14.7955 14.6705C15.0065 14.4595 15.125 14.1734 15.125 13.875C15.125 13.5766 15.0065 13.2905 14.7955 13.0795C14.5845 12.8685 14.2984 12.75 14 12.75H11.75C11.0538 12.75 10.3861 12.4734 9.89384 11.9812C9.40156 11.4889 9.125 10.8212 9.125 10.125C9.125 9.42881 9.40156 8.76113 9.89384 8.26884C10.3861 7.77656 11.0538 7.5 11.75 7.5H12.125V6.75C12.125 6.33579 12.4608 6 12.875 6Z" />
    </symbol>
    <symbol id="Clock" viewBox="0 0 25 24">
        <path fill-rule="evenodd" clip-rule="evenodd"
            d="M12.625 3.75C8.06865 3.75 4.375 7.44365 4.375 12C4.375 16.5563 8.06865 20.25 12.625 20.25C17.1813 20.25 20.875 16.5563 20.875 12C20.875 7.44365 17.1813 3.75 12.625 3.75ZM2.875 12C2.875 6.61522 7.24022 2.25 12.625 2.25C18.0098 2.25 22.375 6.61522 22.375 12C22.375 17.3848 18.0098 21.75 12.625 21.75C7.24022 21.75 2.875 17.3848 2.875 12Z" />
        <path fill-rule="evenodd" clip-rule="evenodd"
            d="M12.625 6C13.0392 6 13.375 6.33579 13.375 6.75V11.25H17.875C18.2892 11.25 18.625 11.5858 18.625 12C18.625 12.4142 18.2892 12.75 17.875 12.75H12.625C12.2108 12.75 11.875 12.4142 11.875 12V6.75C11.875 6.33579 12.2108 6 12.625 6Z" />
    </symbol>
    <symbol id="CoinIn" viewBox="0 0 25 24">
        <path fill-rule="evenodd" clip-rule="evenodd"
            d="M12.125 3.75C16.6813 3.75 20.375 7.44365 20.375 12C20.375 16.5563 16.6813 20.25 12.125 20.25C7.56865 20.25 3.875 16.5563 3.875 12V10.5006C3.875 10.0863 3.53921 9.75 3.125 9.75C2.71079 9.75 2.375 10.0858 2.375 10.5V12C2.375 17.3848 6.74022 21.75 12.125 21.75C17.5098 21.75 21.875 17.3848 21.875 12C21.875 6.61522 17.5098 2.25 12.125 2.25L10.6257 2.25L10.625 3.75L12.125 3.75ZM9.875 3C9.875 3.41422 10.2108 3.75 10.625 3.75L10.6257 2.25C10.2115 2.25 9.875 2.58579 9.875 3Z" />
        <path fill-rule="evenodd" clip-rule="evenodd"
            d="M3.125 6C2.71079 6 2.375 6.33579 2.375 6.75C2.375 7.16421 2.71079 7.5 3.125 7.5H6.875C7.28921 7.5 7.625 7.16421 7.625 6.75V3C7.625 2.58579 7.28921 2.25 6.875 2.25C6.46079 2.25 6.125 2.58579 6.125 3V4.93934L3.65533 2.46967C3.36244 2.17678 2.88756 2.17678 2.59467 2.46967C2.30178 2.76256 2.30178 3.23744 2.59467 3.53033L5.06434 6H3.125Z" />
        <path
            d="M12.125 6C12.5392 6 12.875 6.33579 12.875 6.75V7.5H14.375C14.7892 7.5 15.125 7.83579 15.125 8.25C15.125 8.66421 14.7892 9 14.375 9H11C10.7016 9 10.4155 9.11853 10.2045 9.3295C9.99353 9.54048 9.875 9.82663 9.875 10.125C9.875 10.4234 9.99353 10.7095 10.2045 10.9205C10.4155 11.1315 10.7016 11.25 11 11.25H13.25C13.9462 11.25 14.6139 11.5266 15.1062 12.0188C15.5984 12.5111 15.875 13.1788 15.875 13.875C15.875 14.5712 15.5984 15.2389 15.1062 15.7312C14.6139 16.2234 13.9462 16.5 13.25 16.5H12.875V17.25C12.875 17.6642 12.5392 18 12.125 18C11.7108 18 11.375 17.6642 11.375 17.25V16.5H9.875C9.46079 16.5 9.125 16.1642 9.125 15.75C9.125 15.3358 9.46079 15 9.875 15H13.25C13.5484 15 13.8345 14.8815 14.0455 14.6705C14.2565 14.4595 14.375 14.1734 14.375 13.875C14.375 13.5766 14.2565 13.2905 14.0455 13.0795C13.8345 12.8685 13.5484 12.75 13.25 12.75H11C10.3038 12.75 9.63613 12.4734 9.14384 11.9812C8.65156 11.4889 8.375 10.8212 8.375 10.125C8.375 9.42881 8.65156 8.76113 9.14384 8.26884C9.63613 7.77656 10.3038 7.5 11 7.5H11.375V6.75C11.375 6.33579 11.7108 6 12.125 6Z" />
    </symbol>
    <symbol id="Sliders" viewBox="0 0 18 18">
        <path fill-rule="evenodd" clip-rule="evenodd" d="M9 2.25C9.31066 2.25 9.5625 2.50184 9.5625 2.8125V4.30028C10.3757 4.54231 10.9688 5.29565 10.9688 6.1875C10.9688 7.07935 10.3757 7.83269 9.5625 8.07472V15.1875C9.5625 15.4982 9.31066 15.75 9 15.75C8.68934 15.75 8.4375 15.4982 8.4375 15.1875V8.07472C7.62427 7.83269 7.03125 7.07935 7.03125 6.1875C7.03125 5.29565 7.62427 4.54231 8.4375 4.30028V2.8125C8.4375 2.50184 8.68934 2.25 9 2.25ZM9 7.03125C9.46599 7.03125 9.84375 6.65349 9.84375 6.1875C9.84375 5.72151 9.46599 5.34375 9 5.34375C8.53401 5.34375 8.15625 5.72151 8.15625 6.1875C8.15625 6.65349 8.53401 7.03125 9 7.03125Z" fill="#1E4841"/>
        <path fill-rule="evenodd" clip-rule="evenodd" d="M14.0625 2.25C14.3732 2.25 14.625 2.50184 14.625 2.8125V9.92528C15.4382 10.1673 16.0312 10.9207 16.0312 11.8125C16.0312 12.7043 15.4382 13.4577 14.625 13.6997V15.1875C14.625 15.4982 14.3732 15.75 14.0625 15.75C13.7518 15.75 13.5 15.4982 13.5 15.1875V13.6997C12.6868 13.4577 12.0938 12.7043 12.0938 11.8125C12.0938 10.9207 12.6868 10.1673 13.5 9.92528V2.8125C13.5 2.50184 13.7518 2.25 14.0625 2.25ZM14.0625 12.6562C14.5285 12.6562 14.9062 12.2785 14.9062 11.8125C14.9062 11.3465 14.5285 10.9688 14.0625 10.9688C13.5965 10.9688 13.2188 11.3465 13.2188 11.8125C13.2188 12.2785 13.5965 12.6562 14.0625 12.6562Z" fill="#1E4841"/>
        <path fill-rule="evenodd" clip-rule="evenodd" d="M3.9375 2.25C4.24816 2.25 4.5 2.50184 4.5 2.8125V7.67528C5.31323 7.91731 5.90625 8.67065 5.90625 9.5625C5.90625 10.4543 5.31323 11.2077 4.5 11.4497V15.1875C4.5 15.4982 4.24816 15.75 3.9375 15.75C3.62684 15.75 3.375 15.4982 3.375 15.1875V11.4497C2.56177 11.2077 1.96875 10.4543 1.96875 9.5625C1.96875 8.67065 2.56177 7.91731 3.375 7.67528V2.8125C3.375 2.50184 3.62684 2.25 3.9375 2.25ZM3.9375 10.4062C4.40349 10.4062 4.78125 10.0285 4.78125 9.5625C4.78125 9.09651 4.40349 8.71875 3.9375 8.71875C3.47151 8.71875 3.09375 9.09651 3.09375 9.5625C3.09375 10.0285 3.47151 10.4062 3.9375 10.4062Z" fill="#1E4841"/>
</symbol>
    
</svg>